G04 #@! TF.GenerationSoftware,KiCad,Pcbnew,5.0.2*
G04 #@! TF.CreationDate,2020-09-10T14:17:03+02:00*
G04 #@! TF.ProjectId,pmod-ct,706d6f64-2d63-4742-9e6b-696361645f70,1*
G04 #@! TF.SameCoordinates,Original*
G04 #@! TF.FileFunction,Copper,L1,Top*
G04 #@! TF.FilePolarity,Positive*
%FSLAX46Y46*%
G04 Gerber Fmt 4.6, Leading zero omitted, Abs format (unit mm)*
G04 Created by KiCad (PCBNEW 5.0.2) date jeu. 10 sept. 2020 14:17:03 CEST*
%MOMM*%
%LPD*%
G01*
G04 APERTURE LIST*
G04 #@! TA.AperFunction,NonConductor*
%ADD10C,0.101600*%
G04 #@! TD*
G04 #@! TA.AperFunction,ComponentPad*
%ADD11R,2.000000X1.900000*%
G04 #@! TD*
G04 #@! TA.AperFunction,ComponentPad*
%ADD12C,1.900000*%
G04 #@! TD*
G04 #@! TA.AperFunction,ComponentPad*
%ADD13R,2.540000X2.540000*%
G04 #@! TD*
G04 #@! TA.AperFunction,ComponentPad*
%ADD14C,2.540000*%
G04 #@! TD*
G04 #@! TA.AperFunction,SMDPad,CuDef*
%ADD15R,3.000000X2.000000*%
G04 #@! TD*
G04 #@! TA.AperFunction,SMDPad,CuDef*
%ADD16R,0.599440X0.599440*%
G04 #@! TD*
G04 #@! TA.AperFunction,SMDPad,CuDef*
%ADD17R,0.635000X1.143000*%
G04 #@! TD*
G04 #@! TA.AperFunction,SMDPad,CuDef*
%ADD18R,1.000000X0.400000*%
G04 #@! TD*
G04 #@! TA.AperFunction,SMDPad,CuDef*
%ADD19R,0.889000X1.397000*%
G04 #@! TD*
G04 #@! TA.AperFunction,SMDPad,CuDef*
%ADD20R,1.143000X0.635000*%
G04 #@! TD*
G04 #@! TA.AperFunction,SMDPad,CuDef*
%ADD21R,1.000000X0.300000*%
G04 #@! TD*
G04 #@! TA.AperFunction,ComponentPad*
%ADD22C,1.524000*%
G04 #@! TD*
G04 #@! TA.AperFunction,BGAPad,CuDef*
%ADD23C,1.198880*%
G04 #@! TD*
G04 #@! TA.AperFunction,ViaPad*
%ADD24C,0.711200*%
G04 #@! TD*
G04 #@! TA.AperFunction,Conductor*
%ADD25C,1.016000*%
G04 #@! TD*
G04 #@! TA.AperFunction,Conductor*
%ADD26C,0.304800*%
G04 #@! TD*
G04 #@! TA.AperFunction,Conductor*
%ADD27C,0.406400*%
G04 #@! TD*
G04 #@! TA.AperFunction,Conductor*
%ADD28C,0.711200*%
G04 #@! TD*
G04 #@! TA.AperFunction,Conductor*
%ADD29C,0.203200*%
G04 #@! TD*
G04 #@! TA.AperFunction,Conductor*
%ADD30C,0.152400*%
G04 #@! TD*
G04 APERTURE END LIST*
D10*
X161663333Y-114250000D02*
X161630000Y-114283333D01*
X161530000Y-114316666D01*
X161463333Y-114316666D01*
X161363333Y-114283333D01*
X161296666Y-114216666D01*
X161263333Y-114150000D01*
X161230000Y-114016666D01*
X161230000Y-113916666D01*
X161263333Y-113783333D01*
X161296666Y-113716666D01*
X161363333Y-113650000D01*
X161463333Y-113616666D01*
X161530000Y-113616666D01*
X161630000Y-113650000D01*
X161663333Y-113683333D01*
X162363333Y-114250000D02*
X162330000Y-114283333D01*
X162230000Y-114316666D01*
X162163333Y-114316666D01*
X162063333Y-114283333D01*
X161996666Y-114216666D01*
X161963333Y-114150000D01*
X161930000Y-114016666D01*
X161930000Y-113916666D01*
X161963333Y-113783333D01*
X161996666Y-113716666D01*
X162063333Y-113650000D01*
X162163333Y-113616666D01*
X162230000Y-113616666D01*
X162330000Y-113650000D01*
X162363333Y-113683333D01*
X162663333Y-114050000D02*
X163196666Y-114050000D01*
X163530000Y-114316666D02*
X163530000Y-113616666D01*
X163530000Y-113883333D02*
X163596666Y-113850000D01*
X163730000Y-113850000D01*
X163796666Y-113883333D01*
X163830000Y-113916666D01*
X163863333Y-113983333D01*
X163863333Y-114183333D01*
X163830000Y-114250000D01*
X163796666Y-114283333D01*
X163730000Y-114316666D01*
X163596666Y-114316666D01*
X163530000Y-114283333D01*
X164096666Y-113850000D02*
X164263333Y-114316666D01*
X164430000Y-113850000D02*
X164263333Y-114316666D01*
X164196666Y-114483333D01*
X164163333Y-114516666D01*
X164096666Y-114550000D01*
X164696666Y-114050000D02*
X165230000Y-114050000D01*
X165530000Y-114283333D02*
X165630000Y-114316666D01*
X165796666Y-114316666D01*
X165863333Y-114283333D01*
X165896666Y-114250000D01*
X165930000Y-114183333D01*
X165930000Y-114116666D01*
X165896666Y-114050000D01*
X165863333Y-114016666D01*
X165796666Y-113983333D01*
X165663333Y-113950000D01*
X165596666Y-113916666D01*
X165563333Y-113883333D01*
X165530000Y-113816666D01*
X165530000Y-113750000D01*
X165563333Y-113683333D01*
X165596666Y-113650000D01*
X165663333Y-113616666D01*
X165830000Y-113616666D01*
X165930000Y-113650000D01*
X166196666Y-114116666D02*
X166530000Y-114116666D01*
X166130000Y-114316666D02*
X166363333Y-113616666D01*
X166596666Y-114316666D01*
X157282706Y-114266666D02*
X157282706Y-113800000D01*
X157282706Y-113933333D02*
X157316040Y-113866666D01*
X157349373Y-113833333D01*
X157416040Y-113800000D01*
X157482706Y-113800000D01*
X157982706Y-114233333D02*
X157916040Y-114266666D01*
X157782706Y-114266666D01*
X157716040Y-114233333D01*
X157682706Y-114166666D01*
X157682706Y-113900000D01*
X157716040Y-113833333D01*
X157782706Y-113800000D01*
X157916040Y-113800000D01*
X157982706Y-113833333D01*
X158016040Y-113900000D01*
X158016040Y-113966666D01*
X157682706Y-114033333D01*
X158249373Y-113800000D02*
X158416040Y-114266666D01*
X158582706Y-113800000D01*
X159216040Y-114266666D02*
X158816040Y-114266666D01*
X159016040Y-114266666D02*
X159016040Y-113566666D01*
X158949373Y-113666666D01*
X158882706Y-113733333D01*
X158816040Y-113766666D01*
X157247293Y-112816666D02*
X157247293Y-112116666D01*
X157513960Y-112116666D01*
X157580626Y-112150000D01*
X157613960Y-112183333D01*
X157647293Y-112250000D01*
X157647293Y-112350000D01*
X157613960Y-112416666D01*
X157580626Y-112450000D01*
X157513960Y-112483333D01*
X157247293Y-112483333D01*
X157947293Y-112816666D02*
X157947293Y-112116666D01*
X158180626Y-112616666D01*
X158413960Y-112116666D01*
X158413960Y-112816666D01*
X158880626Y-112116666D02*
X159013960Y-112116666D01*
X159080626Y-112150000D01*
X159147293Y-112216666D01*
X159180626Y-112350000D01*
X159180626Y-112583333D01*
X159147293Y-112716666D01*
X159080626Y-112783333D01*
X159013960Y-112816666D01*
X158880626Y-112816666D01*
X158813960Y-112783333D01*
X158747293Y-112716666D01*
X158713960Y-112583333D01*
X158713960Y-112350000D01*
X158747293Y-112216666D01*
X158813960Y-112150000D01*
X158880626Y-112116666D01*
X159480626Y-112816666D02*
X159480626Y-112116666D01*
X159647293Y-112116666D01*
X159747293Y-112150000D01*
X159813960Y-112216666D01*
X159847293Y-112283333D01*
X159880626Y-112416666D01*
X159880626Y-112516666D01*
X159847293Y-112650000D01*
X159813960Y-112716666D01*
X159747293Y-112783333D01*
X159647293Y-112816666D01*
X159480626Y-112816666D01*
X160180626Y-112550000D02*
X160713960Y-112550000D01*
X161013960Y-112783333D02*
X161113960Y-112816666D01*
X161280626Y-112816666D01*
X161347293Y-112783333D01*
X161380626Y-112750000D01*
X161413960Y-112683333D01*
X161413960Y-112616666D01*
X161380626Y-112550000D01*
X161347293Y-112516666D01*
X161280626Y-112483333D01*
X161147293Y-112450000D01*
X161080626Y-112416666D01*
X161047293Y-112383333D01*
X161013960Y-112316666D01*
X161013960Y-112250000D01*
X161047293Y-112183333D01*
X161080626Y-112150000D01*
X161147293Y-112116666D01*
X161313960Y-112116666D01*
X161413960Y-112150000D01*
X161713960Y-112450000D02*
X161947293Y-112450000D01*
X162047293Y-112816666D02*
X161713960Y-112816666D01*
X161713960Y-112116666D01*
X162047293Y-112116666D01*
X162347293Y-112816666D02*
X162347293Y-112116666D01*
X162747293Y-112816666D01*
X162747293Y-112116666D01*
X163047293Y-112783333D02*
X163147293Y-112816666D01*
X163313960Y-112816666D01*
X163380626Y-112783333D01*
X163413960Y-112750000D01*
X163447293Y-112683333D01*
X163447293Y-112616666D01*
X163413960Y-112550000D01*
X163380626Y-112516666D01*
X163313960Y-112483333D01*
X163180626Y-112450000D01*
X163113960Y-112416666D01*
X163080626Y-112383333D01*
X163047293Y-112316666D01*
X163047293Y-112250000D01*
X163080626Y-112183333D01*
X163113960Y-112150000D01*
X163180626Y-112116666D01*
X163347293Y-112116666D01*
X163447293Y-112150000D01*
X163880626Y-112116666D02*
X164013960Y-112116666D01*
X164080626Y-112150000D01*
X164147293Y-112216666D01*
X164180626Y-112350000D01*
X164180626Y-112583333D01*
X164147293Y-112716666D01*
X164080626Y-112783333D01*
X164013960Y-112816666D01*
X163880626Y-112816666D01*
X163813960Y-112783333D01*
X163747293Y-112716666D01*
X163713960Y-112583333D01*
X163713960Y-112350000D01*
X163747293Y-112216666D01*
X163813960Y-112150000D01*
X163880626Y-112116666D01*
X164880626Y-112816666D02*
X164647293Y-112483333D01*
X164480626Y-112816666D02*
X164480626Y-112116666D01*
X164747293Y-112116666D01*
X164813960Y-112150000D01*
X164847293Y-112183333D01*
X164880626Y-112250000D01*
X164880626Y-112350000D01*
X164847293Y-112416666D01*
X164813960Y-112450000D01*
X164747293Y-112483333D01*
X164480626Y-112483333D01*
X165180626Y-112550000D02*
X165713960Y-112550000D01*
X166447293Y-112750000D02*
X166413960Y-112783333D01*
X166313960Y-112816666D01*
X166247293Y-112816666D01*
X166147293Y-112783333D01*
X166080626Y-112716666D01*
X166047293Y-112650000D01*
X166013960Y-112516666D01*
X166013960Y-112416666D01*
X166047293Y-112283333D01*
X166080626Y-112216666D01*
X166147293Y-112150000D01*
X166247293Y-112116666D01*
X166313960Y-112116666D01*
X166413960Y-112150000D01*
X166447293Y-112183333D01*
X166647293Y-112116666D02*
X167047293Y-112116666D01*
X166847293Y-112816666D02*
X166847293Y-112116666D01*
D11*
G04 #@! TO.P,P1,1*
G04 #@! TO.N,PMOD_CS*
X136040000Y-98650000D03*
D12*
G04 #@! TO.P,P1,2*
G04 #@! TO.N,Net-(P1-Pad2)*
X136040000Y-101190000D03*
G04 #@! TO.P,P1,3*
G04 #@! TO.N,PMOD_MISO*
X136040000Y-103730000D03*
G04 #@! TO.P,P1,4*
G04 #@! TO.N,PMOD_SCK*
X136040000Y-106270000D03*
G04 #@! TO.P,P1,5*
G04 #@! TO.N,GND*
X136040000Y-108810000D03*
G04 #@! TO.P,P1,6*
G04 #@! TO.N,+VPMOD*
X136040000Y-111350000D03*
G04 #@! TO.P,P1,7*
G04 #@! TO.N,Net-(P1-Pad7)*
X133500000Y-98650000D03*
G04 #@! TO.P,P1,8*
G04 #@! TO.N,Net-(P1-Pad8)*
X133500000Y-101190000D03*
G04 #@! TO.P,P1,9*
G04 #@! TO.N,Net-(P1-Pad9)*
X133500000Y-103730000D03*
G04 #@! TO.P,P1,10*
G04 #@! TO.N,Net-(P1-Pad10)*
X133500000Y-106270000D03*
G04 #@! TO.P,P1,11*
G04 #@! TO.N,GND*
X133500000Y-108810000D03*
G04 #@! TO.P,P1,12*
G04 #@! TO.N,+VPMOD*
X133500000Y-111350000D03*
G04 #@! TD*
D13*
G04 #@! TO.P,P2,1*
G04 #@! TO.N,GND*
X162460000Y-107540000D03*
D14*
G04 #@! TO.P,P2,2*
G04 #@! TO.N,Net-(P2-Pad2)*
X162460000Y-102460000D03*
G04 #@! TD*
D15*
G04 #@! TO.P,R1,2*
G04 #@! TO.N,GND*
X154000000Y-107950000D03*
G04 #@! TO.P,R1,1*
G04 #@! TO.N,Net-(P2-Pad2)*
X154000000Y-102050000D03*
G04 #@! TD*
D16*
G04 #@! TO.P,D1,1*
G04 #@! TO.N,GND*
X151000000Y-95849380D03*
G04 #@! TO.P,D1,2*
G04 #@! TO.N,Net-(D1-Pad2)*
X151000000Y-98150620D03*
G04 #@! TD*
D17*
G04 #@! TO.P,R2,1*
G04 #@! TO.N,Net-(P2-Pad2)*
X155762000Y-98010000D03*
G04 #@! TO.P,R2,2*
G04 #@! TO.N,Net-(D1-Pad2)*
X154238000Y-98010000D03*
G04 #@! TD*
D18*
G04 #@! TO.P,U2,5*
G04 #@! TO.N,+3.3V*
X147900000Y-100650000D03*
G04 #@! TO.P,U2,4*
G04 #@! TO.N,Net-(R4-Pad1)*
X147900000Y-99350000D03*
G04 #@! TO.P,U2,3*
G04 #@! TO.N,Net-(D1-Pad2)*
X150100000Y-99350000D03*
G04 #@! TO.P,U2,2*
G04 #@! TO.N,GND*
X150100000Y-100000000D03*
G04 #@! TO.P,U2,1*
G04 #@! TO.N,Net-(R4-Pad2)*
X150100000Y-100650000D03*
G04 #@! TD*
D19*
G04 #@! TO.P,C1,1*
G04 #@! TO.N,+VPMOD*
X133452500Y-114000000D03*
G04 #@! TO.P,C1,2*
G04 #@! TO.N,GND*
X131547500Y-114000000D03*
G04 #@! TD*
D20*
G04 #@! TO.P,C2,2*
G04 #@! TO.N,GND*
X138500000Y-113512000D03*
G04 #@! TO.P,C2,1*
G04 #@! TO.N,+3.3V*
X138500000Y-111988000D03*
G04 #@! TD*
G04 #@! TO.P,C3,1*
G04 #@! TO.N,+3.3V*
X140250000Y-111988000D03*
G04 #@! TO.P,C3,2*
G04 #@! TO.N,GND*
X140250000Y-113512000D03*
G04 #@! TD*
D17*
G04 #@! TO.P,C4,2*
G04 #@! TO.N,GND*
X142762000Y-107500000D03*
G04 #@! TO.P,C4,1*
G04 #@! TO.N,+3.3V*
X141238000Y-107500000D03*
G04 #@! TD*
G04 #@! TO.P,C5,1*
G04 #@! TO.N,+3.3V*
X148238000Y-102000000D03*
G04 #@! TO.P,C5,2*
G04 #@! TO.N,GND*
X149762000Y-102000000D03*
G04 #@! TD*
G04 #@! TO.P,L1,1*
G04 #@! TO.N,+VPMOD*
X135238000Y-114000000D03*
G04 #@! TO.P,L1,2*
G04 #@! TO.N,+3.3V*
X136762000Y-114000000D03*
G04 #@! TD*
G04 #@! TO.P,R3,2*
G04 #@! TO.N,GND*
X155762000Y-96000000D03*
G04 #@! TO.P,R3,1*
G04 #@! TO.N,Net-(D1-Pad2)*
X154238000Y-96000000D03*
G04 #@! TD*
G04 #@! TO.P,R4,1*
G04 #@! TO.N,Net-(R4-Pad1)*
X147488000Y-98000000D03*
G04 #@! TO.P,R4,2*
G04 #@! TO.N,Net-(R4-Pad2)*
X149012000Y-98000000D03*
G04 #@! TD*
G04 #@! TO.P,R5,2*
G04 #@! TO.N,GND*
X149012000Y-96250000D03*
G04 #@! TO.P,R5,1*
G04 #@! TO.N,Net-(R4-Pad1)*
X147488000Y-96250000D03*
G04 #@! TD*
D21*
G04 #@! TO.P,U1,1*
G04 #@! TO.N,+VRef*
X144450000Y-105750000D03*
G04 #@! TO.P,U1,2*
G04 #@! TO.N,Net-(R4-Pad2)*
X144450000Y-105250000D03*
G04 #@! TO.P,U1,3*
G04 #@! TO.N,GND*
X144450000Y-104750000D03*
G04 #@! TO.P,U1,4*
X144450000Y-104250000D03*
G04 #@! TO.P,U1,5*
G04 #@! TO.N,PMOD_CS*
X139550000Y-104250000D03*
G04 #@! TO.P,U1,6*
G04 #@! TO.N,PMOD_MISO*
X139550000Y-104750000D03*
G04 #@! TO.P,U1,7*
G04 #@! TO.N,PMOD_SCK*
X139550000Y-105250000D03*
G04 #@! TO.P,U1,8*
G04 #@! TO.N,+3.3V*
X139550000Y-105750000D03*
G04 #@! TD*
D17*
G04 #@! TO.P,C6,2*
G04 #@! TO.N,GND*
X146762000Y-107000000D03*
G04 #@! TO.P,C6,1*
G04 #@! TO.N,+VRef*
X145238000Y-107000000D03*
G04 #@! TD*
D20*
G04 #@! TO.P,L2,1*
G04 #@! TO.N,+3.3V*
X145000000Y-110012000D03*
G04 #@! TO.P,L2,2*
G04 #@! TO.N,+VRef*
X145000000Y-108488000D03*
G04 #@! TD*
D22*
G04 #@! TO.P,TP1,1*
G04 #@! TO.N,GND*
X143000000Y-114000000D03*
G04 #@! TD*
D23*
G04 #@! TO.P,TP2,1*
G04 #@! TO.N,Net-(R4-Pad2)*
X146500000Y-102500000D03*
G04 #@! TD*
D24*
G04 #@! TO.N,GND*
X155000000Y-109500000D03*
X153000000Y-109500000D03*
X154000000Y-109500000D03*
X151250000Y-100000000D03*
X150000000Y-96250000D03*
X152000000Y-95850000D03*
X130500000Y-114000000D03*
X138500000Y-114500000D03*
X140250000Y-114500000D03*
X151250000Y-102000000D03*
X156750000Y-96000000D03*
X144450000Y-103500000D03*
X143750000Y-107500000D03*
X145750000Y-104500000D03*
X146750000Y-108250000D03*
X151250000Y-104000000D03*
X151250000Y-106000000D03*
X151250000Y-108000000D03*
X151250000Y-110000000D03*
X166750000Y-111000000D03*
X166750000Y-95500000D03*
X142000000Y-105000000D03*
X134500000Y-96250000D03*
G04 #@! TO.N,Net-(R4-Pad2)*
X146500000Y-102500000D03*
G04 #@! TD*
D25*
G04 #@! TO.N,GND*
X154000000Y-107950000D02*
X158940000Y-107950000D01*
X158940000Y-107950000D02*
X159350000Y-107540000D01*
X159350000Y-107540000D02*
X162460000Y-107540000D01*
D26*
X154000000Y-107950000D02*
X154000000Y-109500000D01*
D27*
X155000000Y-109500000D02*
X155000000Y-108950000D01*
X155000000Y-108950000D02*
X154000000Y-107950000D01*
X153000000Y-109500000D02*
X153000000Y-108950000D01*
X153000000Y-108950000D02*
X154000000Y-107950000D01*
X150100000Y-100000000D02*
X151250000Y-100000000D01*
X150000620Y-96249380D02*
X150000000Y-96250000D01*
X151000000Y-95849380D02*
X151999380Y-95849380D01*
X151999380Y-95849380D02*
X152000000Y-95850000D01*
X131547500Y-114000000D02*
X130500000Y-114000000D01*
X138500000Y-113512000D02*
X138500000Y-114500000D01*
X140250000Y-114500000D02*
X140250000Y-113512000D01*
X149762000Y-102000000D02*
X151250000Y-102000000D01*
D28*
X156750000Y-96000000D02*
X155762000Y-96000000D01*
D27*
X151000000Y-95849380D02*
X150400620Y-95849380D01*
X150400620Y-95849380D02*
X150000000Y-96250000D01*
D28*
X150000000Y-96250000D02*
X149012000Y-96250000D01*
D26*
X144450000Y-104250000D02*
X144450000Y-103500000D01*
D28*
X142762000Y-107500000D02*
X143750000Y-107500000D01*
D26*
X144450000Y-104750000D02*
X145140000Y-104750000D01*
X145140000Y-104750000D02*
X145390000Y-104500000D01*
X145390000Y-104500000D02*
X145750000Y-104500000D01*
D27*
X146750000Y-108250000D02*
X146750000Y-107012000D01*
X146750000Y-107012000D02*
X146762000Y-107000000D01*
D25*
G04 #@! TO.N,+VPMOD*
X136040000Y-111350000D02*
X133500000Y-111350000D01*
X133452500Y-114000000D02*
X133452500Y-111397500D01*
X133452500Y-111397500D02*
X133500000Y-111350000D01*
X135238000Y-114000000D02*
X133452500Y-114000000D01*
G04 #@! TO.N,Net-(P2-Pad2)*
X154000000Y-102050000D02*
X158940000Y-102050000D01*
X158940000Y-102050000D02*
X159350000Y-102460000D01*
X159350000Y-102460000D02*
X162460000Y-102460000D01*
D28*
X155762000Y-98010000D02*
X155762000Y-98938000D01*
X155762000Y-98938000D02*
X154000000Y-100700000D01*
X154000000Y-100700000D02*
X154000000Y-102050000D01*
D27*
G04 #@! TO.N,Net-(D1-Pad2)*
X150100000Y-99350000D02*
X150400000Y-99350000D01*
X150400000Y-99350000D02*
X151000000Y-98750000D01*
X151000000Y-98750000D02*
X151000000Y-98150620D01*
D28*
X154238000Y-98010000D02*
X154238000Y-96000000D01*
X154238000Y-96000000D02*
X153610000Y-96000000D01*
X153610000Y-96000000D02*
X152750000Y-96860000D01*
X152750000Y-96860000D02*
X152750000Y-97380000D01*
X152750000Y-97380000D02*
X151979380Y-98150620D01*
X151979380Y-98150620D02*
X151000000Y-98150620D01*
D27*
G04 #@! TO.N,+3.3V*
X136762000Y-113658000D02*
X136762000Y-114000000D01*
X136762000Y-114000000D02*
X136762000Y-112798000D01*
X136762000Y-112798000D02*
X137572000Y-111988000D01*
X137572000Y-111988000D02*
X138500000Y-111988000D01*
X147900000Y-100650000D02*
X147900000Y-101410000D01*
X147900000Y-101410000D02*
X148238000Y-101748000D01*
X148238000Y-101748000D02*
X148238000Y-102000000D01*
D28*
X141238000Y-107500000D02*
X140400000Y-107500000D01*
X140400000Y-107500000D02*
X139550000Y-106650000D01*
X139550000Y-106650000D02*
X139550000Y-106400000D01*
D26*
X139550000Y-105750000D02*
X139550000Y-106400000D01*
D28*
X141238000Y-107500000D02*
X141238000Y-109242000D01*
X141238000Y-109242000D02*
X140250000Y-110230000D01*
X140250000Y-110230000D02*
X140250000Y-111988000D01*
X138500000Y-111988000D02*
X140250000Y-111988000D01*
X140250000Y-111988000D02*
X145382000Y-111988000D01*
X145382000Y-111988000D02*
X148238000Y-109132000D01*
X148238000Y-109132000D02*
X148238000Y-102000000D01*
D27*
X145000000Y-110012000D02*
X142902000Y-110012000D01*
X142902000Y-110012000D02*
X142132000Y-109242000D01*
X142132000Y-109242000D02*
X141238000Y-109242000D01*
D28*
G04 #@! TO.N,Net-(R4-Pad1)*
X147488000Y-98000000D02*
X147488000Y-96250000D01*
D27*
X147900000Y-99350000D02*
X147900000Y-98920000D01*
X147900000Y-98920000D02*
X147488000Y-98508000D01*
X147488000Y-98508000D02*
X147488000Y-98000000D01*
G04 #@! TO.N,Net-(R4-Pad2)*
X150100000Y-100650000D02*
X149360000Y-100650000D01*
X149360000Y-100650000D02*
X149000000Y-100290000D01*
X149000000Y-100290000D02*
X149000000Y-100000000D01*
X149000000Y-100000000D02*
X149000000Y-98012000D01*
X149000000Y-98012000D02*
X149012000Y-98000000D01*
D26*
X144450000Y-105250000D02*
X145970000Y-105250000D01*
X145970000Y-105250000D02*
X146500000Y-104720000D01*
X146500000Y-100750000D02*
X147250000Y-100000000D01*
X147250000Y-100000000D02*
X149000000Y-100000000D01*
X146500000Y-100750000D02*
X146500000Y-102500000D01*
X146500000Y-104720000D02*
X146500000Y-102500000D01*
D29*
G04 #@! TO.N,PMOD_CS*
X139550000Y-104250000D02*
X138750000Y-104250000D01*
X138750000Y-104250000D02*
X138500000Y-104000000D01*
X138500000Y-104000000D02*
X138500000Y-101110000D01*
X138500000Y-101110000D02*
X136040000Y-98650000D01*
G04 #@! TO.N,PMOD_MISO*
X139550000Y-104750000D02*
X138520000Y-104750000D01*
X138520000Y-104750000D02*
X137500000Y-103730000D01*
X137500000Y-103730000D02*
X136040000Y-103730000D01*
G04 #@! TO.N,PMOD_SCK*
X139550000Y-105250000D02*
X138520000Y-105250000D01*
X136040000Y-106270000D02*
X137500000Y-106270000D01*
X137500000Y-106270000D02*
X138520000Y-105250000D01*
D26*
G04 #@! TO.N,+VRef*
X144450000Y-105750000D02*
X145180000Y-105750000D01*
X145180000Y-105750000D02*
X145400000Y-105970000D01*
X145400000Y-105970000D02*
X145400000Y-106838000D01*
X145400000Y-106838000D02*
X145238000Y-107000000D01*
D27*
X145238000Y-107000000D02*
X145238000Y-108250000D01*
X145238000Y-108250000D02*
X145000000Y-108488000D01*
G04 #@! TD*
D30*
G04 #@! TO.N,GND*
G36*
X167246400Y-99843800D02*
X157456200Y-99843800D01*
X157456200Y-96970000D01*
X157450400Y-96940840D01*
X157433882Y-96916118D01*
X157409160Y-96899600D01*
X157380320Y-96893801D01*
X155000320Y-96883801D01*
X154971136Y-96889478D01*
X154946345Y-96905893D01*
X154929724Y-96930544D01*
X154923800Y-96960000D01*
X154923800Y-98923800D01*
X152000000Y-98923800D01*
X151970840Y-98929600D01*
X151946118Y-98946118D01*
X151929600Y-98970840D01*
X151923800Y-99000000D01*
X151923800Y-110080000D01*
X151929600Y-110109160D01*
X151946118Y-110133882D01*
X151970840Y-110150400D01*
X152000000Y-110156200D01*
X167246401Y-110156200D01*
X167246401Y-111742000D01*
X156816467Y-111742000D01*
X156816467Y-113350800D01*
X156819216Y-113350800D01*
X156814708Y-114856400D01*
X143526563Y-114856400D01*
X143551818Y-114845939D01*
X143636892Y-114708735D01*
X143000000Y-114071842D01*
X142363108Y-114708735D01*
X142448182Y-114845939D01*
X142474248Y-114856400D01*
X134066429Y-114856400D01*
X134112336Y-114787695D01*
X134122499Y-114736600D01*
X134756122Y-114736600D01*
X134831305Y-114786836D01*
X134920500Y-114804578D01*
X135555500Y-114804578D01*
X135644695Y-114786836D01*
X135720311Y-114736311D01*
X135770836Y-114660695D01*
X135788578Y-114571500D01*
X135788578Y-114501844D01*
X135931861Y-114287407D01*
X135989030Y-114000000D01*
X135931861Y-113712593D01*
X135788578Y-113498156D01*
X135788578Y-113428500D01*
X135770836Y-113339305D01*
X135720311Y-113263689D01*
X135644695Y-113213164D01*
X135555500Y-113195422D01*
X134920500Y-113195422D01*
X134831305Y-113213164D01*
X134756122Y-113263400D01*
X134189100Y-113263400D01*
X134189100Y-112327692D01*
X134430192Y-112086600D01*
X135109808Y-112086600D01*
X135372377Y-112349169D01*
X135805562Y-112528600D01*
X136274438Y-112528600D01*
X136524196Y-112425147D01*
X136486740Y-112462603D01*
X136450691Y-112486690D01*
X136426603Y-112522740D01*
X136426601Y-112522742D01*
X136355254Y-112629521D01*
X136321742Y-112798000D01*
X136330201Y-112840527D01*
X136330201Y-113229938D01*
X136279689Y-113263689D01*
X136229164Y-113339305D01*
X136211422Y-113428500D01*
X136211422Y-114571500D01*
X136229164Y-114660695D01*
X136279689Y-114736311D01*
X136355305Y-114786836D01*
X136444500Y-114804578D01*
X137079500Y-114804578D01*
X137168695Y-114786836D01*
X137244311Y-114736311D01*
X137294836Y-114660695D01*
X137312578Y-114571500D01*
X137312578Y-113619950D01*
X137699900Y-113619950D01*
X137699900Y-113874971D01*
X137734702Y-113958991D01*
X137799008Y-114023297D01*
X137883028Y-114058100D01*
X138392050Y-114058100D01*
X138449200Y-114000950D01*
X138449200Y-113562800D01*
X138550800Y-113562800D01*
X138550800Y-114000950D01*
X138607950Y-114058100D01*
X139116972Y-114058100D01*
X139200992Y-114023297D01*
X139265298Y-113958991D01*
X139300100Y-113874971D01*
X139300100Y-113619950D01*
X139449900Y-113619950D01*
X139449900Y-113874971D01*
X139484702Y-113958991D01*
X139549008Y-114023297D01*
X139633028Y-114058100D01*
X140142050Y-114058100D01*
X140199200Y-114000950D01*
X140199200Y-113562800D01*
X140300800Y-113562800D01*
X140300800Y-114000950D01*
X140357950Y-114058100D01*
X140866972Y-114058100D01*
X140950992Y-114023297D01*
X141015298Y-113958991D01*
X141050100Y-113874971D01*
X141050100Y-113813914D01*
X142007283Y-113813914D01*
X142011637Y-114207975D01*
X142154061Y-114551818D01*
X142291265Y-114636892D01*
X142928158Y-114000000D01*
X143071842Y-114000000D01*
X143708735Y-114636892D01*
X143845939Y-114551818D01*
X143992717Y-114186086D01*
X143988363Y-113792025D01*
X143845939Y-113448182D01*
X143708735Y-113363108D01*
X143071842Y-114000000D01*
X142928158Y-114000000D01*
X142291265Y-113363108D01*
X142154061Y-113448182D01*
X142007283Y-113813914D01*
X141050100Y-113813914D01*
X141050100Y-113619950D01*
X140992950Y-113562800D01*
X140300800Y-113562800D01*
X140199200Y-113562800D01*
X139507050Y-113562800D01*
X139449900Y-113619950D01*
X139300100Y-113619950D01*
X139242950Y-113562800D01*
X138550800Y-113562800D01*
X138449200Y-113562800D01*
X137757050Y-113562800D01*
X137699900Y-113619950D01*
X137312578Y-113619950D01*
X137312578Y-113428500D01*
X137294836Y-113339305D01*
X137244311Y-113263689D01*
X137193800Y-113229939D01*
X137193800Y-113149029D01*
X137699900Y-113149029D01*
X137699900Y-113404050D01*
X137757050Y-113461200D01*
X138449200Y-113461200D01*
X138449200Y-113023050D01*
X138550800Y-113023050D01*
X138550800Y-113461200D01*
X139242950Y-113461200D01*
X139300100Y-113404050D01*
X139300100Y-113149029D01*
X139449900Y-113149029D01*
X139449900Y-113404050D01*
X139507050Y-113461200D01*
X140199200Y-113461200D01*
X140199200Y-113023050D01*
X140300800Y-113023050D01*
X140300800Y-113461200D01*
X140992950Y-113461200D01*
X141050100Y-113404050D01*
X141050100Y-113291265D01*
X142363108Y-113291265D01*
X143000000Y-113928158D01*
X143636892Y-113291265D01*
X143551818Y-113154061D01*
X143186086Y-113007283D01*
X142792025Y-113011637D01*
X142448182Y-113154061D01*
X142363108Y-113291265D01*
X141050100Y-113291265D01*
X141050100Y-113149029D01*
X141015298Y-113065009D01*
X140950992Y-113000703D01*
X140866972Y-112965900D01*
X140357950Y-112965900D01*
X140300800Y-113023050D01*
X140199200Y-113023050D01*
X140142050Y-112965900D01*
X139633028Y-112965900D01*
X139549008Y-113000703D01*
X139484702Y-113065009D01*
X139449900Y-113149029D01*
X139300100Y-113149029D01*
X139265298Y-113065009D01*
X139200992Y-113000703D01*
X139116972Y-112965900D01*
X138607950Y-112965900D01*
X138550800Y-113023050D01*
X138449200Y-113023050D01*
X138392050Y-112965900D01*
X137883028Y-112965900D01*
X137799008Y-113000703D01*
X137734702Y-113065009D01*
X137699900Y-113149029D01*
X137193800Y-113149029D01*
X137193800Y-112976857D01*
X137738318Y-112432340D01*
X137763689Y-112470311D01*
X137839305Y-112520836D01*
X137928500Y-112538578D01*
X138273434Y-112538578D01*
X138442463Y-112572200D01*
X140192463Y-112572200D01*
X140250000Y-112583645D01*
X140307537Y-112572200D01*
X145324464Y-112572200D01*
X145382000Y-112583645D01*
X145439536Y-112572200D01*
X145439537Y-112572200D01*
X145609943Y-112538304D01*
X145803185Y-112409185D01*
X145835781Y-112360401D01*
X148610404Y-109585779D01*
X148659185Y-109553185D01*
X148788304Y-109359943D01*
X148822200Y-109189537D01*
X148822200Y-109189536D01*
X148833645Y-109132000D01*
X148822200Y-109074464D01*
X148822200Y-102107950D01*
X149215900Y-102107950D01*
X149215900Y-102616972D01*
X149250703Y-102700992D01*
X149315009Y-102765298D01*
X149399029Y-102800100D01*
X149654050Y-102800100D01*
X149711200Y-102742950D01*
X149711200Y-102050800D01*
X149812800Y-102050800D01*
X149812800Y-102742950D01*
X149869950Y-102800100D01*
X150124971Y-102800100D01*
X150208991Y-102765298D01*
X150273297Y-102700992D01*
X150308100Y-102616972D01*
X150308100Y-102107950D01*
X150250950Y-102050800D01*
X149812800Y-102050800D01*
X149711200Y-102050800D01*
X149273050Y-102050800D01*
X149215900Y-102107950D01*
X148822200Y-102107950D01*
X148822200Y-101942463D01*
X148788578Y-101773434D01*
X148788578Y-101428500D01*
X148779534Y-101383028D01*
X149215900Y-101383028D01*
X149215900Y-101892050D01*
X149273050Y-101949200D01*
X149711200Y-101949200D01*
X149711200Y-101257050D01*
X149812800Y-101257050D01*
X149812800Y-101949200D01*
X150250950Y-101949200D01*
X150308100Y-101892050D01*
X150308100Y-101383028D01*
X150273297Y-101299008D01*
X150208991Y-101234702D01*
X150124971Y-101199900D01*
X149869950Y-101199900D01*
X149812800Y-101257050D01*
X149711200Y-101257050D01*
X149654050Y-101199900D01*
X149399029Y-101199900D01*
X149315009Y-101234702D01*
X149250703Y-101299008D01*
X149215900Y-101383028D01*
X148779534Y-101383028D01*
X148770836Y-101339305D01*
X148720311Y-101263689D01*
X148644695Y-101213164D01*
X148555500Y-101195422D01*
X148331800Y-101195422D01*
X148331800Y-101083078D01*
X148400000Y-101083078D01*
X148489195Y-101065336D01*
X148564811Y-101014811D01*
X148615336Y-100939195D01*
X148633078Y-100850000D01*
X148633078Y-100518080D01*
X148688690Y-100601310D01*
X148724742Y-100625399D01*
X149024602Y-100925260D01*
X149048690Y-100961310D01*
X149084740Y-100985398D01*
X149084741Y-100985399D01*
X149143537Y-101024685D01*
X149191520Y-101056746D01*
X149317474Y-101081800D01*
X149317478Y-101081800D01*
X149360000Y-101090258D01*
X149402522Y-101081800D01*
X149593575Y-101081800D01*
X149600000Y-101083078D01*
X150600000Y-101083078D01*
X150689195Y-101065336D01*
X150764811Y-101014811D01*
X150815336Y-100939195D01*
X150833078Y-100850000D01*
X150833078Y-100450000D01*
X150815336Y-100360805D01*
X150794033Y-100328923D01*
X150828600Y-100245471D01*
X150828600Y-100107950D01*
X150771450Y-100050800D01*
X150150800Y-100050800D01*
X150150800Y-100070800D01*
X150049200Y-100070800D01*
X150049200Y-100050800D01*
X150029200Y-100050800D01*
X150029200Y-99949200D01*
X150049200Y-99949200D01*
X150049200Y-99929200D01*
X150150800Y-99929200D01*
X150150800Y-99949200D01*
X150771450Y-99949200D01*
X150828600Y-99892050D01*
X150828600Y-99754529D01*
X150794033Y-99671077D01*
X150815336Y-99639195D01*
X150833078Y-99550000D01*
X150833078Y-99527579D01*
X151275261Y-99085397D01*
X151311310Y-99061310D01*
X151362173Y-98985189D01*
X151406746Y-98918480D01*
X151413517Y-98884438D01*
X151431800Y-98792526D01*
X151431800Y-98792523D01*
X151440258Y-98750001D01*
X151437238Y-98734820D01*
X151921844Y-98734820D01*
X151979380Y-98746265D01*
X152036916Y-98734820D01*
X152036917Y-98734820D01*
X152207323Y-98700924D01*
X152400565Y-98571805D01*
X152433161Y-98523021D01*
X153122406Y-97833778D01*
X153171185Y-97801185D01*
X153300304Y-97607943D01*
X153334200Y-97437537D01*
X153345645Y-97380001D01*
X153334200Y-97322465D01*
X153334200Y-97101982D01*
X153653801Y-96782382D01*
X153653800Y-98067536D01*
X153687422Y-98236565D01*
X153687422Y-98581500D01*
X153705164Y-98670695D01*
X153755689Y-98746311D01*
X153831305Y-98796836D01*
X153920500Y-98814578D01*
X154555500Y-98814578D01*
X154644695Y-98796836D01*
X154720311Y-98746311D01*
X154770836Y-98670695D01*
X154788578Y-98581500D01*
X154788578Y-98236566D01*
X154822200Y-98067537D01*
X154822200Y-96107950D01*
X155215900Y-96107950D01*
X155215900Y-96616972D01*
X155250703Y-96700992D01*
X155315009Y-96765298D01*
X155399029Y-96800100D01*
X155654050Y-96800100D01*
X155711200Y-96742950D01*
X155711200Y-96050800D01*
X155812800Y-96050800D01*
X155812800Y-96742950D01*
X155869950Y-96800100D01*
X156124971Y-96800100D01*
X156208991Y-96765298D01*
X156273297Y-96700992D01*
X156308100Y-96616972D01*
X156308100Y-96107950D01*
X156250950Y-96050800D01*
X155812800Y-96050800D01*
X155711200Y-96050800D01*
X155273050Y-96050800D01*
X155215900Y-96107950D01*
X154822200Y-96107950D01*
X154822200Y-96057537D01*
X154833645Y-96000000D01*
X154788578Y-95773434D01*
X154788578Y-95428500D01*
X154779534Y-95383028D01*
X155215900Y-95383028D01*
X155215900Y-95892050D01*
X155273050Y-95949200D01*
X155711200Y-95949200D01*
X155711200Y-95257050D01*
X155812800Y-95257050D01*
X155812800Y-95949200D01*
X156250950Y-95949200D01*
X156308100Y-95892050D01*
X156308100Y-95383028D01*
X156273297Y-95299008D01*
X156208991Y-95234702D01*
X156124971Y-95199900D01*
X155869950Y-95199900D01*
X155812800Y-95257050D01*
X155711200Y-95257050D01*
X155654050Y-95199900D01*
X155399029Y-95199900D01*
X155315009Y-95234702D01*
X155250703Y-95299008D01*
X155215900Y-95383028D01*
X154779534Y-95383028D01*
X154770836Y-95339305D01*
X154720311Y-95263689D01*
X154644695Y-95213164D01*
X154555500Y-95195422D01*
X153920500Y-95195422D01*
X153831305Y-95213164D01*
X153755689Y-95263689D01*
X153705164Y-95339305D01*
X153689948Y-95415800D01*
X153667536Y-95415800D01*
X153610000Y-95404355D01*
X153552464Y-95415800D01*
X153552463Y-95415800D01*
X153382057Y-95449696D01*
X153188815Y-95578815D01*
X153156220Y-95627597D01*
X152377599Y-96406219D01*
X152328815Y-96438815D01*
X152199696Y-96632058D01*
X152178959Y-96736311D01*
X152154355Y-96860000D01*
X152165800Y-96917536D01*
X152165800Y-97138016D01*
X151737398Y-97566420D01*
X150942463Y-97566420D01*
X150772057Y-97600316D01*
X150745857Y-97617822D01*
X150700280Y-97617822D01*
X150611085Y-97635564D01*
X150535469Y-97686089D01*
X150484944Y-97761705D01*
X150467202Y-97850900D01*
X150467202Y-97896477D01*
X150449696Y-97922677D01*
X150404355Y-98150620D01*
X150449696Y-98378563D01*
X150467202Y-98404763D01*
X150467202Y-98450340D01*
X150484944Y-98539535D01*
X150530952Y-98608391D01*
X150222421Y-98916922D01*
X149600000Y-98916922D01*
X149510805Y-98934664D01*
X149435189Y-98985189D01*
X149431800Y-98990261D01*
X149431800Y-98778080D01*
X149494311Y-98736311D01*
X149544836Y-98660695D01*
X149562578Y-98571500D01*
X149562578Y-97428500D01*
X149544836Y-97339305D01*
X149494311Y-97263689D01*
X149418695Y-97213164D01*
X149329500Y-97195422D01*
X148694500Y-97195422D01*
X148605305Y-97213164D01*
X148529689Y-97263689D01*
X148479164Y-97339305D01*
X148461422Y-97428500D01*
X148461422Y-98571500D01*
X148479164Y-98660695D01*
X148529689Y-98736311D01*
X148568201Y-98762044D01*
X148568201Y-98990262D01*
X148564811Y-98985189D01*
X148489195Y-98934664D01*
X148400000Y-98916922D01*
X148339646Y-98916922D01*
X148331800Y-98877478D01*
X148331800Y-98877474D01*
X148306746Y-98751520D01*
X148256606Y-98676480D01*
X148235399Y-98644741D01*
X148235398Y-98644740D01*
X148211310Y-98608690D01*
X148175260Y-98584602D01*
X148038578Y-98447920D01*
X148038578Y-98226566D01*
X148072200Y-98057537D01*
X148072200Y-96357950D01*
X148465900Y-96357950D01*
X148465900Y-96866972D01*
X148500703Y-96950992D01*
X148565009Y-97015298D01*
X148649029Y-97050100D01*
X148904050Y-97050100D01*
X148961200Y-96992950D01*
X148961200Y-96300800D01*
X149062800Y-96300800D01*
X149062800Y-96992950D01*
X149119950Y-97050100D01*
X149374971Y-97050100D01*
X149458991Y-97015298D01*
X149523297Y-96950992D01*
X149558100Y-96866972D01*
X149558100Y-96357950D01*
X149500950Y-96300800D01*
X149062800Y-96300800D01*
X148961200Y-96300800D01*
X148523050Y-96300800D01*
X148465900Y-96357950D01*
X148072200Y-96357950D01*
X148072200Y-96192463D01*
X148038578Y-96023434D01*
X148038578Y-95678500D01*
X148029534Y-95633028D01*
X148465900Y-95633028D01*
X148465900Y-96142050D01*
X148523050Y-96199200D01*
X148961200Y-96199200D01*
X148961200Y-95507050D01*
X149062800Y-95507050D01*
X149062800Y-96199200D01*
X149500950Y-96199200D01*
X149558100Y-96142050D01*
X149558100Y-95957330D01*
X150471680Y-95957330D01*
X150471680Y-96194571D01*
X150506482Y-96278591D01*
X150570788Y-96342897D01*
X150654808Y-96377700D01*
X150892050Y-96377700D01*
X150949200Y-96320550D01*
X150949200Y-95900180D01*
X151050800Y-95900180D01*
X151050800Y-96320550D01*
X151107950Y-96377700D01*
X151345192Y-96377700D01*
X151429212Y-96342897D01*
X151493518Y-96278591D01*
X151528320Y-96194571D01*
X151528320Y-95957330D01*
X151471170Y-95900180D01*
X151050800Y-95900180D01*
X150949200Y-95900180D01*
X150528830Y-95900180D01*
X150471680Y-95957330D01*
X149558100Y-95957330D01*
X149558100Y-95633028D01*
X149523297Y-95549008D01*
X149478478Y-95504189D01*
X150471680Y-95504189D01*
X150471680Y-95741430D01*
X150528830Y-95798580D01*
X150949200Y-95798580D01*
X150949200Y-95378210D01*
X151050800Y-95378210D01*
X151050800Y-95798580D01*
X151471170Y-95798580D01*
X151528320Y-95741430D01*
X151528320Y-95504189D01*
X151493518Y-95420169D01*
X151429212Y-95355863D01*
X151345192Y-95321060D01*
X151107950Y-95321060D01*
X151050800Y-95378210D01*
X150949200Y-95378210D01*
X150892050Y-95321060D01*
X150654808Y-95321060D01*
X150570788Y-95355863D01*
X150506482Y-95420169D01*
X150471680Y-95504189D01*
X149478478Y-95504189D01*
X149458991Y-95484702D01*
X149374971Y-95449900D01*
X149119950Y-95449900D01*
X149062800Y-95507050D01*
X148961200Y-95507050D01*
X148904050Y-95449900D01*
X148649029Y-95449900D01*
X148565009Y-95484702D01*
X148500703Y-95549008D01*
X148465900Y-95633028D01*
X148029534Y-95633028D01*
X148020836Y-95589305D01*
X147970311Y-95513689D01*
X147894695Y-95463164D01*
X147805500Y-95445422D01*
X147170500Y-95445422D01*
X147081305Y-95463164D01*
X147005689Y-95513689D01*
X146955164Y-95589305D01*
X146937422Y-95678500D01*
X146937422Y-96023440D01*
X146903801Y-96192463D01*
X146903800Y-98057536D01*
X146937422Y-98226565D01*
X146937422Y-98571500D01*
X146955164Y-98660695D01*
X147005689Y-98736311D01*
X147081305Y-98786836D01*
X147166286Y-98803740D01*
X147176690Y-98819310D01*
X147212742Y-98843399D01*
X147306730Y-98937387D01*
X147235189Y-98985189D01*
X147184664Y-99060805D01*
X147166922Y-99150000D01*
X147166922Y-99550000D01*
X147181858Y-99625090D01*
X147110948Y-99639195D01*
X147101341Y-99641106D01*
X146975314Y-99725314D01*
X146954058Y-99757126D01*
X146257129Y-100454056D01*
X146225314Y-100475314D01*
X146141127Y-100601310D01*
X146141106Y-100601342D01*
X146111536Y-100750000D01*
X146119000Y-100787524D01*
X146119001Y-101761551D01*
X146030953Y-101798022D01*
X145798022Y-102030953D01*
X145671960Y-102335293D01*
X145671960Y-102664707D01*
X145798022Y-102969047D01*
X146030953Y-103201978D01*
X146119001Y-103238449D01*
X146119000Y-104562184D01*
X145812185Y-104869000D01*
X145178600Y-104869000D01*
X145178600Y-104857950D01*
X145121450Y-104800800D01*
X144500800Y-104800800D01*
X144500800Y-104820800D01*
X144399200Y-104820800D01*
X144399200Y-104800800D01*
X143778550Y-104800800D01*
X143721400Y-104857950D01*
X143721400Y-104945471D01*
X143743182Y-104998057D01*
X143734664Y-105010805D01*
X143716922Y-105100000D01*
X143716922Y-105400000D01*
X143734664Y-105489195D01*
X143741884Y-105500000D01*
X143734664Y-105510805D01*
X143716922Y-105600000D01*
X143716922Y-105900000D01*
X143734664Y-105989195D01*
X143785189Y-106064811D01*
X143860805Y-106115336D01*
X143950000Y-106133078D01*
X144950000Y-106133078D01*
X144960447Y-106131000D01*
X145019000Y-106131000D01*
X145019000Y-106195422D01*
X144920500Y-106195422D01*
X144831305Y-106213164D01*
X144755689Y-106263689D01*
X144705164Y-106339305D01*
X144687422Y-106428500D01*
X144687422Y-107571500D01*
X144705164Y-107660695D01*
X144755689Y-107736311D01*
X144806201Y-107770062D01*
X144806201Y-107937422D01*
X144428500Y-107937422D01*
X144339305Y-107955164D01*
X144263689Y-108005689D01*
X144213164Y-108081305D01*
X144195422Y-108170500D01*
X144195422Y-108805500D01*
X144213164Y-108894695D01*
X144263689Y-108970311D01*
X144339305Y-109020836D01*
X144428500Y-109038578D01*
X145571500Y-109038578D01*
X145660695Y-109020836D01*
X145736311Y-108970311D01*
X145786836Y-108894695D01*
X145804578Y-108805500D01*
X145804578Y-108170500D01*
X145786836Y-108081305D01*
X145736311Y-108005689D01*
X145669800Y-107961248D01*
X145669800Y-107770061D01*
X145720311Y-107736311D01*
X145770836Y-107660695D01*
X145788578Y-107571500D01*
X145788578Y-107107950D01*
X146215900Y-107107950D01*
X146215900Y-107616972D01*
X146250703Y-107700992D01*
X146315009Y-107765298D01*
X146399029Y-107800100D01*
X146654050Y-107800100D01*
X146711200Y-107742950D01*
X146711200Y-107050800D01*
X146812800Y-107050800D01*
X146812800Y-107742950D01*
X146869950Y-107800100D01*
X147124971Y-107800100D01*
X147208991Y-107765298D01*
X147273297Y-107700992D01*
X147308100Y-107616972D01*
X147308100Y-107107950D01*
X147250950Y-107050800D01*
X146812800Y-107050800D01*
X146711200Y-107050800D01*
X146273050Y-107050800D01*
X146215900Y-107107950D01*
X145788578Y-107107950D01*
X145788578Y-106428500D01*
X145781000Y-106390403D01*
X145781000Y-106383028D01*
X146215900Y-106383028D01*
X146215900Y-106892050D01*
X146273050Y-106949200D01*
X146711200Y-106949200D01*
X146711200Y-106257050D01*
X146812800Y-106257050D01*
X146812800Y-106949200D01*
X147250950Y-106949200D01*
X147308100Y-106892050D01*
X147308100Y-106383028D01*
X147273297Y-106299008D01*
X147208991Y-106234702D01*
X147124971Y-106199900D01*
X146869950Y-106199900D01*
X146812800Y-106257050D01*
X146711200Y-106257050D01*
X146654050Y-106199900D01*
X146399029Y-106199900D01*
X146315009Y-106234702D01*
X146250703Y-106299008D01*
X146215900Y-106383028D01*
X145781000Y-106383028D01*
X145781000Y-106007524D01*
X145788464Y-105970000D01*
X145758894Y-105821341D01*
X145747544Y-105804355D01*
X145674686Y-105695314D01*
X145642872Y-105674057D01*
X145599815Y-105631000D01*
X145932476Y-105631000D01*
X145970000Y-105638464D01*
X146007524Y-105631000D01*
X146118659Y-105608894D01*
X146244686Y-105524686D01*
X146265944Y-105492871D01*
X146742874Y-105015942D01*
X146774686Y-104994686D01*
X146858894Y-104868659D01*
X146881000Y-104757524D01*
X146881000Y-104757523D01*
X146888464Y-104720001D01*
X146881000Y-104682477D01*
X146881000Y-103238448D01*
X146969047Y-103201978D01*
X147201978Y-102969047D01*
X147328040Y-102664707D01*
X147328040Y-102335293D01*
X147201978Y-102030953D01*
X146969047Y-101798022D01*
X146881000Y-101761552D01*
X146881000Y-100907815D01*
X147166922Y-100621894D01*
X147166922Y-100850000D01*
X147184664Y-100939195D01*
X147235189Y-101014811D01*
X147310805Y-101065336D01*
X147400000Y-101083078D01*
X147468201Y-101083078D01*
X147468201Y-101367474D01*
X147459742Y-101410000D01*
X147493254Y-101578479D01*
X147564601Y-101685258D01*
X147564603Y-101685260D01*
X147588691Y-101721310D01*
X147624740Y-101745397D01*
X147681675Y-101802332D01*
X147653801Y-101942463D01*
X147653800Y-108890017D01*
X145140018Y-111403800D01*
X140834200Y-111403800D01*
X140834200Y-110471982D01*
X141610403Y-109695780D01*
X141643298Y-109673800D01*
X141953143Y-109673800D01*
X142566600Y-110287257D01*
X142590690Y-110323310D01*
X142733520Y-110418746D01*
X142859474Y-110443800D01*
X142859478Y-110443800D01*
X142901999Y-110452258D01*
X142944520Y-110443800D01*
X144229939Y-110443800D01*
X144263689Y-110494311D01*
X144339305Y-110544836D01*
X144428500Y-110562578D01*
X145571500Y-110562578D01*
X145660695Y-110544836D01*
X145736311Y-110494311D01*
X145786836Y-110418695D01*
X145804578Y-110329500D01*
X145804578Y-109694500D01*
X145786836Y-109605305D01*
X145736311Y-109529689D01*
X145660695Y-109479164D01*
X145571500Y-109461422D01*
X144428500Y-109461422D01*
X144339305Y-109479164D01*
X144263689Y-109529689D01*
X144229939Y-109580200D01*
X143080857Y-109580200D01*
X142467400Y-108966743D01*
X142443310Y-108930690D01*
X142300480Y-108835254D01*
X142174526Y-108810200D01*
X142174522Y-108810200D01*
X142132000Y-108801742D01*
X142089478Y-108810200D01*
X141822200Y-108810200D01*
X141822200Y-107607950D01*
X142215900Y-107607950D01*
X142215900Y-108116972D01*
X142250703Y-108200992D01*
X142315009Y-108265298D01*
X142399029Y-108300100D01*
X142654050Y-108300100D01*
X142711200Y-108242950D01*
X142711200Y-107550800D01*
X142812800Y-107550800D01*
X142812800Y-108242950D01*
X142869950Y-108300100D01*
X143124971Y-108300100D01*
X143208991Y-108265298D01*
X143273297Y-108200992D01*
X143308100Y-108116972D01*
X143308100Y-107607950D01*
X143250950Y-107550800D01*
X142812800Y-107550800D01*
X142711200Y-107550800D01*
X142273050Y-107550800D01*
X142215900Y-107607950D01*
X141822200Y-107607950D01*
X141822200Y-107557537D01*
X141833645Y-107500000D01*
X141788578Y-107273434D01*
X141788578Y-106928500D01*
X141779534Y-106883028D01*
X142215900Y-106883028D01*
X142215900Y-107392050D01*
X142273050Y-107449200D01*
X142711200Y-107449200D01*
X142711200Y-106757050D01*
X142812800Y-106757050D01*
X142812800Y-107449200D01*
X143250950Y-107449200D01*
X143308100Y-107392050D01*
X143308100Y-106883028D01*
X143273297Y-106799008D01*
X143208991Y-106734702D01*
X143124971Y-106699900D01*
X142869950Y-106699900D01*
X142812800Y-106757050D01*
X142711200Y-106757050D01*
X142654050Y-106699900D01*
X142399029Y-106699900D01*
X142315009Y-106734702D01*
X142250703Y-106799008D01*
X142215900Y-106883028D01*
X141779534Y-106883028D01*
X141770836Y-106839305D01*
X141720311Y-106763689D01*
X141644695Y-106713164D01*
X141555500Y-106695422D01*
X140920500Y-106695422D01*
X140831305Y-106713164D01*
X140755689Y-106763689D01*
X140705164Y-106839305D01*
X140689948Y-106915800D01*
X140641983Y-106915800D01*
X140134200Y-106408018D01*
X140134200Y-106342464D01*
X140100304Y-106172058D01*
X140071413Y-106128819D01*
X140139195Y-106115336D01*
X140214811Y-106064811D01*
X140265336Y-105989195D01*
X140283078Y-105900000D01*
X140283078Y-105600000D01*
X140265336Y-105510805D01*
X140258116Y-105500000D01*
X140265336Y-105489195D01*
X140283078Y-105400000D01*
X140283078Y-105100000D01*
X140265336Y-105010805D01*
X140258116Y-105000000D01*
X140265336Y-104989195D01*
X140283078Y-104900000D01*
X140283078Y-104600000D01*
X140265336Y-104510805D01*
X140258116Y-104500000D01*
X140265336Y-104489195D01*
X140283078Y-104400000D01*
X140283078Y-104357950D01*
X143721400Y-104357950D01*
X143721400Y-104445471D01*
X143743987Y-104500000D01*
X143721400Y-104554529D01*
X143721400Y-104642050D01*
X143778550Y-104699200D01*
X144399200Y-104699200D01*
X144399200Y-104300800D01*
X144500800Y-104300800D01*
X144500800Y-104699200D01*
X145121450Y-104699200D01*
X145178600Y-104642050D01*
X145178600Y-104554529D01*
X145156013Y-104500000D01*
X145178600Y-104445471D01*
X145178600Y-104357950D01*
X145121450Y-104300800D01*
X144500800Y-104300800D01*
X144399200Y-104300800D01*
X143778550Y-104300800D01*
X143721400Y-104357950D01*
X140283078Y-104357950D01*
X140283078Y-104100000D01*
X140274034Y-104054529D01*
X143721400Y-104054529D01*
X143721400Y-104142050D01*
X143778550Y-104199200D01*
X144399200Y-104199200D01*
X144399200Y-103928550D01*
X144500800Y-103928550D01*
X144500800Y-104199200D01*
X145121450Y-104199200D01*
X145178600Y-104142050D01*
X145178600Y-104054529D01*
X145143798Y-103970509D01*
X145079492Y-103906203D01*
X144995472Y-103871400D01*
X144557950Y-103871400D01*
X144500800Y-103928550D01*
X144399200Y-103928550D01*
X144342050Y-103871400D01*
X143904528Y-103871400D01*
X143820508Y-103906203D01*
X143756202Y-103970509D01*
X143721400Y-104054529D01*
X140274034Y-104054529D01*
X140265336Y-104010805D01*
X140214811Y-103935189D01*
X140139195Y-103884664D01*
X140050000Y-103866922D01*
X139050000Y-103866922D01*
X138960805Y-103884664D01*
X138908220Y-103919800D01*
X138886773Y-103919800D01*
X138830200Y-103863227D01*
X138830200Y-101142516D01*
X138836668Y-101109999D01*
X138830200Y-101077482D01*
X138830200Y-101077478D01*
X138811042Y-100981162D01*
X138738061Y-100871939D01*
X138710489Y-100853516D01*
X137273078Y-99416105D01*
X137273078Y-97700000D01*
X137255336Y-97610805D01*
X137204811Y-97535189D01*
X137129195Y-97484664D01*
X137040000Y-97466922D01*
X135040000Y-97466922D01*
X134950805Y-97484664D01*
X134875189Y-97535189D01*
X134824664Y-97610805D01*
X134806922Y-97700000D01*
X134806922Y-99600000D01*
X134824664Y-99689195D01*
X134875189Y-99764811D01*
X134950805Y-99815336D01*
X135040000Y-99833078D01*
X136756105Y-99833078D01*
X138169801Y-101246774D01*
X138169800Y-103932827D01*
X137756484Y-103519511D01*
X137738061Y-103491939D01*
X137628838Y-103418958D01*
X137532522Y-103399800D01*
X137500000Y-103393331D01*
X137467478Y-103399800D01*
X137178934Y-103399800D01*
X137039169Y-103062377D01*
X136707623Y-102730831D01*
X136274438Y-102551400D01*
X135805562Y-102551400D01*
X135372377Y-102730831D01*
X135040831Y-103062377D01*
X134861400Y-103495562D01*
X134861400Y-103964438D01*
X135040831Y-104397623D01*
X135372377Y-104729169D01*
X135805562Y-104908600D01*
X136274438Y-104908600D01*
X136707623Y-104729169D01*
X137039169Y-104397623D01*
X137178934Y-104060200D01*
X137363227Y-104060200D01*
X138263517Y-104960491D01*
X138281939Y-104988061D01*
X138299807Y-105000000D01*
X138281939Y-105011939D01*
X138263517Y-105039509D01*
X137363227Y-105939800D01*
X137178934Y-105939800D01*
X137039169Y-105602377D01*
X136707623Y-105270831D01*
X136274438Y-105091400D01*
X135805562Y-105091400D01*
X135372377Y-105270831D01*
X135040831Y-105602377D01*
X134861400Y-106035562D01*
X134861400Y-106504438D01*
X135040831Y-106937623D01*
X135372377Y-107269169D01*
X135805562Y-107448600D01*
X136274438Y-107448600D01*
X136707623Y-107269169D01*
X137039169Y-106937623D01*
X137178934Y-106600200D01*
X137467478Y-106600200D01*
X137500000Y-106606669D01*
X137532522Y-106600200D01*
X137628838Y-106581042D01*
X137738061Y-106508061D01*
X137756484Y-106480489D01*
X138656774Y-105580200D01*
X138820860Y-105580200D01*
X138816922Y-105600000D01*
X138816922Y-105900000D01*
X138834664Y-105989195D01*
X138885189Y-106064811D01*
X138960805Y-106115336D01*
X139028587Y-106128819D01*
X138999696Y-106172057D01*
X138965800Y-106342463D01*
X138965800Y-106592464D01*
X138954355Y-106650000D01*
X138965800Y-106707536D01*
X138999696Y-106877942D01*
X139128815Y-107071185D01*
X139177599Y-107103781D01*
X139946220Y-107872403D01*
X139978815Y-107921185D01*
X140118096Y-108014249D01*
X140172056Y-108050304D01*
X140400000Y-108095645D01*
X140457537Y-108084200D01*
X140653800Y-108084200D01*
X140653801Y-109000016D01*
X139877599Y-109776219D01*
X139828815Y-109808815D01*
X139699696Y-110002058D01*
X139667614Y-110163346D01*
X139654355Y-110230000D01*
X139665800Y-110287537D01*
X139665801Y-111403800D01*
X138442463Y-111403800D01*
X138273434Y-111437422D01*
X137928500Y-111437422D01*
X137839305Y-111455164D01*
X137763689Y-111505689D01*
X137729939Y-111556200D01*
X137614522Y-111556200D01*
X137572000Y-111547742D01*
X137529478Y-111556200D01*
X137529474Y-111556200D01*
X137403520Y-111581254D01*
X137296741Y-111652601D01*
X137296740Y-111652602D01*
X137260690Y-111676690D01*
X137236602Y-111712740D01*
X137115147Y-111834195D01*
X137218600Y-111584438D01*
X137218600Y-111115562D01*
X137039169Y-110682377D01*
X136707623Y-110350831D01*
X136274438Y-110171400D01*
X135805562Y-110171400D01*
X135372377Y-110350831D01*
X135109808Y-110613400D01*
X134430192Y-110613400D01*
X134167623Y-110350831D01*
X133734438Y-110171400D01*
X133265562Y-110171400D01*
X132832377Y-110350831D01*
X132500831Y-110682377D01*
X132321400Y-111115562D01*
X132321400Y-111584438D01*
X132500831Y-112017623D01*
X132715901Y-112232693D01*
X132715900Y-113927455D01*
X132701470Y-114000000D01*
X132758639Y-114287407D01*
X132774611Y-114311310D01*
X132774922Y-114311775D01*
X132774922Y-114698500D01*
X132792664Y-114787695D01*
X132838571Y-114856400D01*
X132157389Y-114856400D01*
X132185797Y-114827992D01*
X132220600Y-114743972D01*
X132220600Y-114107950D01*
X132163450Y-114050800D01*
X131598300Y-114050800D01*
X131598300Y-114070800D01*
X131496700Y-114070800D01*
X131496700Y-114050800D01*
X130931550Y-114050800D01*
X130874400Y-114107950D01*
X130874400Y-114743972D01*
X130909203Y-114827992D01*
X130937611Y-114856400D01*
X129753600Y-114856400D01*
X129753600Y-113256028D01*
X130874400Y-113256028D01*
X130874400Y-113892050D01*
X130931550Y-113949200D01*
X131496700Y-113949200D01*
X131496700Y-113130050D01*
X131598300Y-113130050D01*
X131598300Y-113949200D01*
X132163450Y-113949200D01*
X132220600Y-113892050D01*
X132220600Y-113256028D01*
X132185797Y-113172008D01*
X132121491Y-113107702D01*
X132037471Y-113072900D01*
X131655450Y-113072900D01*
X131598300Y-113130050D01*
X131496700Y-113130050D01*
X131439550Y-113072900D01*
X131057529Y-113072900D01*
X130973509Y-113107702D01*
X130909203Y-113172008D01*
X130874400Y-113256028D01*
X129753600Y-113256028D01*
X129753600Y-109654435D01*
X132727407Y-109654435D01*
X132835393Y-109811178D01*
X133269118Y-109989302D01*
X133737992Y-109987888D01*
X134164607Y-109811178D01*
X134272593Y-109654435D01*
X135267407Y-109654435D01*
X135375393Y-109811178D01*
X135809118Y-109989302D01*
X136277992Y-109987888D01*
X136704607Y-109811178D01*
X136812593Y-109654435D01*
X136040000Y-108881842D01*
X135267407Y-109654435D01*
X134272593Y-109654435D01*
X133500000Y-108881842D01*
X132727407Y-109654435D01*
X129753600Y-109654435D01*
X129753600Y-108579118D01*
X132320698Y-108579118D01*
X132322112Y-109047992D01*
X132498822Y-109474607D01*
X132655565Y-109582593D01*
X133428158Y-108810000D01*
X133571842Y-108810000D01*
X134344435Y-109582593D01*
X134501178Y-109474607D01*
X134679302Y-109040882D01*
X134677910Y-108579118D01*
X134860698Y-108579118D01*
X134862112Y-109047992D01*
X135038822Y-109474607D01*
X135195565Y-109582593D01*
X135968158Y-108810000D01*
X136111842Y-108810000D01*
X136884435Y-109582593D01*
X137041178Y-109474607D01*
X137219302Y-109040882D01*
X137217888Y-108572008D01*
X137041178Y-108145393D01*
X136884435Y-108037407D01*
X136111842Y-108810000D01*
X135968158Y-108810000D01*
X135195565Y-108037407D01*
X135038822Y-108145393D01*
X134860698Y-108579118D01*
X134677910Y-108579118D01*
X134677888Y-108572008D01*
X134501178Y-108145393D01*
X134344435Y-108037407D01*
X133571842Y-108810000D01*
X133428158Y-108810000D01*
X132655565Y-108037407D01*
X132498822Y-108145393D01*
X132320698Y-108579118D01*
X129753600Y-108579118D01*
X129753600Y-107965565D01*
X132727407Y-107965565D01*
X133500000Y-108738158D01*
X134272593Y-107965565D01*
X135267407Y-107965565D01*
X136040000Y-108738158D01*
X136812593Y-107965565D01*
X136704607Y-107808822D01*
X136270882Y-107630698D01*
X135802008Y-107632112D01*
X135375393Y-107808822D01*
X135267407Y-107965565D01*
X134272593Y-107965565D01*
X134164607Y-107808822D01*
X133730882Y-107630698D01*
X133262008Y-107632112D01*
X132835393Y-107808822D01*
X132727407Y-107965565D01*
X129753600Y-107965565D01*
X129753600Y-106035562D01*
X132321400Y-106035562D01*
X132321400Y-106504438D01*
X132500831Y-106937623D01*
X132832377Y-107269169D01*
X133265562Y-107448600D01*
X133734438Y-107448600D01*
X134167623Y-107269169D01*
X134499169Y-106937623D01*
X134678600Y-106504438D01*
X134678600Y-106035562D01*
X134499169Y-105602377D01*
X134167623Y-105270831D01*
X133734438Y-105091400D01*
X133265562Y-105091400D01*
X132832377Y-105270831D01*
X132500831Y-105602377D01*
X132321400Y-106035562D01*
X129753600Y-106035562D01*
X129753600Y-103495562D01*
X132321400Y-103495562D01*
X132321400Y-103964438D01*
X132500831Y-104397623D01*
X132832377Y-104729169D01*
X133265562Y-104908600D01*
X133734438Y-104908600D01*
X134167623Y-104729169D01*
X134499169Y-104397623D01*
X134678600Y-103964438D01*
X134678600Y-103495562D01*
X134499169Y-103062377D01*
X134167623Y-102730831D01*
X133734438Y-102551400D01*
X133265562Y-102551400D01*
X132832377Y-102730831D01*
X132500831Y-103062377D01*
X132321400Y-103495562D01*
X129753600Y-103495562D01*
X129753600Y-100955562D01*
X132321400Y-100955562D01*
X132321400Y-101424438D01*
X132500831Y-101857623D01*
X132832377Y-102189169D01*
X133265562Y-102368600D01*
X133734438Y-102368600D01*
X134167623Y-102189169D01*
X134499169Y-101857623D01*
X134678600Y-101424438D01*
X134678600Y-100955562D01*
X134861400Y-100955562D01*
X134861400Y-101424438D01*
X135040831Y-101857623D01*
X135372377Y-102189169D01*
X135805562Y-102368600D01*
X136274438Y-102368600D01*
X136707623Y-102189169D01*
X137039169Y-101857623D01*
X137218600Y-101424438D01*
X137218600Y-100955562D01*
X137039169Y-100522377D01*
X136707623Y-100190831D01*
X136274438Y-100011400D01*
X135805562Y-100011400D01*
X135372377Y-100190831D01*
X135040831Y-100522377D01*
X134861400Y-100955562D01*
X134678600Y-100955562D01*
X134499169Y-100522377D01*
X134167623Y-100190831D01*
X133734438Y-100011400D01*
X133265562Y-100011400D01*
X132832377Y-100190831D01*
X132500831Y-100522377D01*
X132321400Y-100955562D01*
X129753600Y-100955562D01*
X129753600Y-98415562D01*
X132321400Y-98415562D01*
X132321400Y-98884438D01*
X132500831Y-99317623D01*
X132832377Y-99649169D01*
X133265562Y-99828600D01*
X133734438Y-99828600D01*
X134167623Y-99649169D01*
X134499169Y-99317623D01*
X134678600Y-98884438D01*
X134678600Y-98415562D01*
X134499169Y-97982377D01*
X134167623Y-97650831D01*
X133734438Y-97471400D01*
X133265562Y-97471400D01*
X132832377Y-97650831D01*
X132500831Y-97982377D01*
X132321400Y-98415562D01*
X129753600Y-98415562D01*
X129753600Y-95143600D01*
X167246400Y-95143600D01*
X167246400Y-99843800D01*
X167246400Y-99843800D01*
G37*
X167246400Y-99843800D02*
X157456200Y-99843800D01*
X157456200Y-96970000D01*
X157450400Y-96940840D01*
X157433882Y-96916118D01*
X157409160Y-96899600D01*
X157380320Y-96893801D01*
X155000320Y-96883801D01*
X154971136Y-96889478D01*
X154946345Y-96905893D01*
X154929724Y-96930544D01*
X154923800Y-96960000D01*
X154923800Y-98923800D01*
X152000000Y-98923800D01*
X151970840Y-98929600D01*
X151946118Y-98946118D01*
X151929600Y-98970840D01*
X151923800Y-99000000D01*
X151923800Y-110080000D01*
X151929600Y-110109160D01*
X151946118Y-110133882D01*
X151970840Y-110150400D01*
X152000000Y-110156200D01*
X167246401Y-110156200D01*
X167246401Y-111742000D01*
X156816467Y-111742000D01*
X156816467Y-113350800D01*
X156819216Y-113350800D01*
X156814708Y-114856400D01*
X143526563Y-114856400D01*
X143551818Y-114845939D01*
X143636892Y-114708735D01*
X143000000Y-114071842D01*
X142363108Y-114708735D01*
X142448182Y-114845939D01*
X142474248Y-114856400D01*
X134066429Y-114856400D01*
X134112336Y-114787695D01*
X134122499Y-114736600D01*
X134756122Y-114736600D01*
X134831305Y-114786836D01*
X134920500Y-114804578D01*
X135555500Y-114804578D01*
X135644695Y-114786836D01*
X135720311Y-114736311D01*
X135770836Y-114660695D01*
X135788578Y-114571500D01*
X135788578Y-114501844D01*
X135931861Y-114287407D01*
X135989030Y-114000000D01*
X135931861Y-113712593D01*
X135788578Y-113498156D01*
X135788578Y-113428500D01*
X135770836Y-113339305D01*
X135720311Y-113263689D01*
X135644695Y-113213164D01*
X135555500Y-113195422D01*
X134920500Y-113195422D01*
X134831305Y-113213164D01*
X134756122Y-113263400D01*
X134189100Y-113263400D01*
X134189100Y-112327692D01*
X134430192Y-112086600D01*
X135109808Y-112086600D01*
X135372377Y-112349169D01*
X135805562Y-112528600D01*
X136274438Y-112528600D01*
X136524196Y-112425147D01*
X136486740Y-112462603D01*
X136450691Y-112486690D01*
X136426603Y-112522740D01*
X136426601Y-112522742D01*
X136355254Y-112629521D01*
X136321742Y-112798000D01*
X136330201Y-112840527D01*
X136330201Y-113229938D01*
X136279689Y-113263689D01*
X136229164Y-113339305D01*
X136211422Y-113428500D01*
X136211422Y-114571500D01*
X136229164Y-114660695D01*
X136279689Y-114736311D01*
X136355305Y-114786836D01*
X136444500Y-114804578D01*
X137079500Y-114804578D01*
X137168695Y-114786836D01*
X137244311Y-114736311D01*
X137294836Y-114660695D01*
X137312578Y-114571500D01*
X137312578Y-113619950D01*
X137699900Y-113619950D01*
X137699900Y-113874971D01*
X137734702Y-113958991D01*
X137799008Y-114023297D01*
X137883028Y-114058100D01*
X138392050Y-114058100D01*
X138449200Y-114000950D01*
X138449200Y-113562800D01*
X138550800Y-113562800D01*
X138550800Y-114000950D01*
X138607950Y-114058100D01*
X139116972Y-114058100D01*
X139200992Y-114023297D01*
X139265298Y-113958991D01*
X139300100Y-113874971D01*
X139300100Y-113619950D01*
X139449900Y-113619950D01*
X139449900Y-113874971D01*
X139484702Y-113958991D01*
X139549008Y-114023297D01*
X139633028Y-114058100D01*
X140142050Y-114058100D01*
X140199200Y-114000950D01*
X140199200Y-113562800D01*
X140300800Y-113562800D01*
X140300800Y-114000950D01*
X140357950Y-114058100D01*
X140866972Y-114058100D01*
X140950992Y-114023297D01*
X141015298Y-113958991D01*
X141050100Y-113874971D01*
X141050100Y-113813914D01*
X142007283Y-113813914D01*
X142011637Y-114207975D01*
X142154061Y-114551818D01*
X142291265Y-114636892D01*
X142928158Y-114000000D01*
X143071842Y-114000000D01*
X143708735Y-114636892D01*
X143845939Y-114551818D01*
X143992717Y-114186086D01*
X143988363Y-113792025D01*
X143845939Y-113448182D01*
X143708735Y-113363108D01*
X143071842Y-114000000D01*
X142928158Y-114000000D01*
X142291265Y-113363108D01*
X142154061Y-113448182D01*
X142007283Y-113813914D01*
X141050100Y-113813914D01*
X141050100Y-113619950D01*
X140992950Y-113562800D01*
X140300800Y-113562800D01*
X140199200Y-113562800D01*
X139507050Y-113562800D01*
X139449900Y-113619950D01*
X139300100Y-113619950D01*
X139242950Y-113562800D01*
X138550800Y-113562800D01*
X138449200Y-113562800D01*
X137757050Y-113562800D01*
X137699900Y-113619950D01*
X137312578Y-113619950D01*
X137312578Y-113428500D01*
X137294836Y-113339305D01*
X137244311Y-113263689D01*
X137193800Y-113229939D01*
X137193800Y-113149029D01*
X137699900Y-113149029D01*
X137699900Y-113404050D01*
X137757050Y-113461200D01*
X138449200Y-113461200D01*
X138449200Y-113023050D01*
X138550800Y-113023050D01*
X138550800Y-113461200D01*
X139242950Y-113461200D01*
X139300100Y-113404050D01*
X139300100Y-113149029D01*
X139449900Y-113149029D01*
X139449900Y-113404050D01*
X139507050Y-113461200D01*
X140199200Y-113461200D01*
X140199200Y-113023050D01*
X140300800Y-113023050D01*
X140300800Y-113461200D01*
X140992950Y-113461200D01*
X141050100Y-113404050D01*
X141050100Y-113291265D01*
X142363108Y-113291265D01*
X143000000Y-113928158D01*
X143636892Y-113291265D01*
X143551818Y-113154061D01*
X143186086Y-113007283D01*
X142792025Y-113011637D01*
X142448182Y-113154061D01*
X142363108Y-113291265D01*
X141050100Y-113291265D01*
X141050100Y-113149029D01*
X141015298Y-113065009D01*
X140950992Y-113000703D01*
X140866972Y-112965900D01*
X140357950Y-112965900D01*
X140300800Y-113023050D01*
X140199200Y-113023050D01*
X140142050Y-112965900D01*
X139633028Y-112965900D01*
X139549008Y-113000703D01*
X139484702Y-113065009D01*
X139449900Y-113149029D01*
X139300100Y-113149029D01*
X139265298Y-113065009D01*
X139200992Y-113000703D01*
X139116972Y-112965900D01*
X138607950Y-112965900D01*
X138550800Y-113023050D01*
X138449200Y-113023050D01*
X138392050Y-112965900D01*
X137883028Y-112965900D01*
X137799008Y-113000703D01*
X137734702Y-113065009D01*
X137699900Y-113149029D01*
X137193800Y-113149029D01*
X137193800Y-112976857D01*
X137738318Y-112432340D01*
X137763689Y-112470311D01*
X137839305Y-112520836D01*
X137928500Y-112538578D01*
X138273434Y-112538578D01*
X138442463Y-112572200D01*
X140192463Y-112572200D01*
X140250000Y-112583645D01*
X140307537Y-112572200D01*
X145324464Y-112572200D01*
X145382000Y-112583645D01*
X145439536Y-112572200D01*
X145439537Y-112572200D01*
X145609943Y-112538304D01*
X145803185Y-112409185D01*
X145835781Y-112360401D01*
X148610404Y-109585779D01*
X148659185Y-109553185D01*
X148788304Y-109359943D01*
X148822200Y-109189537D01*
X148822200Y-109189536D01*
X148833645Y-109132000D01*
X148822200Y-109074464D01*
X148822200Y-102107950D01*
X149215900Y-102107950D01*
X149215900Y-102616972D01*
X149250703Y-102700992D01*
X149315009Y-102765298D01*
X149399029Y-102800100D01*
X149654050Y-102800100D01*
X149711200Y-102742950D01*
X149711200Y-102050800D01*
X149812800Y-102050800D01*
X149812800Y-102742950D01*
X149869950Y-102800100D01*
X150124971Y-102800100D01*
X150208991Y-102765298D01*
X150273297Y-102700992D01*
X150308100Y-102616972D01*
X150308100Y-102107950D01*
X150250950Y-102050800D01*
X149812800Y-102050800D01*
X149711200Y-102050800D01*
X149273050Y-102050800D01*
X149215900Y-102107950D01*
X148822200Y-102107950D01*
X148822200Y-101942463D01*
X148788578Y-101773434D01*
X148788578Y-101428500D01*
X148779534Y-101383028D01*
X149215900Y-101383028D01*
X149215900Y-101892050D01*
X149273050Y-101949200D01*
X149711200Y-101949200D01*
X149711200Y-101257050D01*
X149812800Y-101257050D01*
X149812800Y-101949200D01*
X150250950Y-101949200D01*
X150308100Y-101892050D01*
X150308100Y-101383028D01*
X150273297Y-101299008D01*
X150208991Y-101234702D01*
X150124971Y-101199900D01*
X149869950Y-101199900D01*
X149812800Y-101257050D01*
X149711200Y-101257050D01*
X149654050Y-101199900D01*
X149399029Y-101199900D01*
X149315009Y-101234702D01*
X149250703Y-101299008D01*
X149215900Y-101383028D01*
X148779534Y-101383028D01*
X148770836Y-101339305D01*
X148720311Y-101263689D01*
X148644695Y-101213164D01*
X148555500Y-101195422D01*
X148331800Y-101195422D01*
X148331800Y-101083078D01*
X148400000Y-101083078D01*
X148489195Y-101065336D01*
X148564811Y-101014811D01*
X148615336Y-100939195D01*
X148633078Y-100850000D01*
X148633078Y-100518080D01*
X148688690Y-100601310D01*
X148724742Y-100625399D01*
X149024602Y-100925260D01*
X149048690Y-100961310D01*
X149084740Y-100985398D01*
X149084741Y-100985399D01*
X149143537Y-101024685D01*
X149191520Y-101056746D01*
X149317474Y-101081800D01*
X149317478Y-101081800D01*
X149360000Y-101090258D01*
X149402522Y-101081800D01*
X149593575Y-101081800D01*
X149600000Y-101083078D01*
X150600000Y-101083078D01*
X150689195Y-101065336D01*
X150764811Y-101014811D01*
X150815336Y-100939195D01*
X150833078Y-100850000D01*
X150833078Y-100450000D01*
X150815336Y-100360805D01*
X150794033Y-100328923D01*
X150828600Y-100245471D01*
X150828600Y-100107950D01*
X150771450Y-100050800D01*
X150150800Y-100050800D01*
X150150800Y-100070800D01*
X150049200Y-100070800D01*
X150049200Y-100050800D01*
X150029200Y-100050800D01*
X150029200Y-99949200D01*
X150049200Y-99949200D01*
X150049200Y-99929200D01*
X150150800Y-99929200D01*
X150150800Y-99949200D01*
X150771450Y-99949200D01*
X150828600Y-99892050D01*
X150828600Y-99754529D01*
X150794033Y-99671077D01*
X150815336Y-99639195D01*
X150833078Y-99550000D01*
X150833078Y-99527579D01*
X151275261Y-99085397D01*
X151311310Y-99061310D01*
X151362173Y-98985189D01*
X151406746Y-98918480D01*
X151413517Y-98884438D01*
X151431800Y-98792526D01*
X151431800Y-98792523D01*
X151440258Y-98750001D01*
X151437238Y-98734820D01*
X151921844Y-98734820D01*
X151979380Y-98746265D01*
X152036916Y-98734820D01*
X152036917Y-98734820D01*
X152207323Y-98700924D01*
X152400565Y-98571805D01*
X152433161Y-98523021D01*
X153122406Y-97833778D01*
X153171185Y-97801185D01*
X153300304Y-97607943D01*
X153334200Y-97437537D01*
X153345645Y-97380001D01*
X153334200Y-97322465D01*
X153334200Y-97101982D01*
X153653801Y-96782382D01*
X153653800Y-98067536D01*
X153687422Y-98236565D01*
X153687422Y-98581500D01*
X153705164Y-98670695D01*
X153755689Y-98746311D01*
X153831305Y-98796836D01*
X153920500Y-98814578D01*
X154555500Y-98814578D01*
X154644695Y-98796836D01*
X154720311Y-98746311D01*
X154770836Y-98670695D01*
X154788578Y-98581500D01*
X154788578Y-98236566D01*
X154822200Y-98067537D01*
X154822200Y-96107950D01*
X155215900Y-96107950D01*
X155215900Y-96616972D01*
X155250703Y-96700992D01*
X155315009Y-96765298D01*
X155399029Y-96800100D01*
X155654050Y-96800100D01*
X155711200Y-96742950D01*
X155711200Y-96050800D01*
X155812800Y-96050800D01*
X155812800Y-96742950D01*
X155869950Y-96800100D01*
X156124971Y-96800100D01*
X156208991Y-96765298D01*
X156273297Y-96700992D01*
X156308100Y-96616972D01*
X156308100Y-96107950D01*
X156250950Y-96050800D01*
X155812800Y-96050800D01*
X155711200Y-96050800D01*
X155273050Y-96050800D01*
X155215900Y-96107950D01*
X154822200Y-96107950D01*
X154822200Y-96057537D01*
X154833645Y-96000000D01*
X154788578Y-95773434D01*
X154788578Y-95428500D01*
X154779534Y-95383028D01*
X155215900Y-95383028D01*
X155215900Y-95892050D01*
X155273050Y-95949200D01*
X155711200Y-95949200D01*
X155711200Y-95257050D01*
X155812800Y-95257050D01*
X155812800Y-95949200D01*
X156250950Y-95949200D01*
X156308100Y-95892050D01*
X156308100Y-95383028D01*
X156273297Y-95299008D01*
X156208991Y-95234702D01*
X156124971Y-95199900D01*
X155869950Y-95199900D01*
X155812800Y-95257050D01*
X155711200Y-95257050D01*
X155654050Y-95199900D01*
X155399029Y-95199900D01*
X155315009Y-95234702D01*
X155250703Y-95299008D01*
X155215900Y-95383028D01*
X154779534Y-95383028D01*
X154770836Y-95339305D01*
X154720311Y-95263689D01*
X154644695Y-95213164D01*
X154555500Y-95195422D01*
X153920500Y-95195422D01*
X153831305Y-95213164D01*
X153755689Y-95263689D01*
X153705164Y-95339305D01*
X153689948Y-95415800D01*
X153667536Y-95415800D01*
X153610000Y-95404355D01*
X153552464Y-95415800D01*
X153552463Y-95415800D01*
X153382057Y-95449696D01*
X153188815Y-95578815D01*
X153156220Y-95627597D01*
X152377599Y-96406219D01*
X152328815Y-96438815D01*
X152199696Y-96632058D01*
X152178959Y-96736311D01*
X152154355Y-96860000D01*
X152165800Y-96917536D01*
X152165800Y-97138016D01*
X151737398Y-97566420D01*
X150942463Y-97566420D01*
X150772057Y-97600316D01*
X150745857Y-97617822D01*
X150700280Y-97617822D01*
X150611085Y-97635564D01*
X150535469Y-97686089D01*
X150484944Y-97761705D01*
X150467202Y-97850900D01*
X150467202Y-97896477D01*
X150449696Y-97922677D01*
X150404355Y-98150620D01*
X150449696Y-98378563D01*
X150467202Y-98404763D01*
X150467202Y-98450340D01*
X150484944Y-98539535D01*
X150530952Y-98608391D01*
X150222421Y-98916922D01*
X149600000Y-98916922D01*
X149510805Y-98934664D01*
X149435189Y-98985189D01*
X149431800Y-98990261D01*
X149431800Y-98778080D01*
X149494311Y-98736311D01*
X149544836Y-98660695D01*
X149562578Y-98571500D01*
X149562578Y-97428500D01*
X149544836Y-97339305D01*
X149494311Y-97263689D01*
X149418695Y-97213164D01*
X149329500Y-97195422D01*
X148694500Y-97195422D01*
X148605305Y-97213164D01*
X148529689Y-97263689D01*
X148479164Y-97339305D01*
X148461422Y-97428500D01*
X148461422Y-98571500D01*
X148479164Y-98660695D01*
X148529689Y-98736311D01*
X148568201Y-98762044D01*
X148568201Y-98990262D01*
X148564811Y-98985189D01*
X148489195Y-98934664D01*
X148400000Y-98916922D01*
X148339646Y-98916922D01*
X148331800Y-98877478D01*
X148331800Y-98877474D01*
X148306746Y-98751520D01*
X148256606Y-98676480D01*
X148235399Y-98644741D01*
X148235398Y-98644740D01*
X148211310Y-98608690D01*
X148175260Y-98584602D01*
X148038578Y-98447920D01*
X148038578Y-98226566D01*
X148072200Y-98057537D01*
X148072200Y-96357950D01*
X148465900Y-96357950D01*
X148465900Y-96866972D01*
X148500703Y-96950992D01*
X148565009Y-97015298D01*
X148649029Y-97050100D01*
X148904050Y-97050100D01*
X148961200Y-96992950D01*
X148961200Y-96300800D01*
X149062800Y-96300800D01*
X149062800Y-96992950D01*
X149119950Y-97050100D01*
X149374971Y-97050100D01*
X149458991Y-97015298D01*
X149523297Y-96950992D01*
X149558100Y-96866972D01*
X149558100Y-96357950D01*
X149500950Y-96300800D01*
X149062800Y-96300800D01*
X148961200Y-96300800D01*
X148523050Y-96300800D01*
X148465900Y-96357950D01*
X148072200Y-96357950D01*
X148072200Y-96192463D01*
X148038578Y-96023434D01*
X148038578Y-95678500D01*
X148029534Y-95633028D01*
X148465900Y-95633028D01*
X148465900Y-96142050D01*
X148523050Y-96199200D01*
X148961200Y-96199200D01*
X148961200Y-95507050D01*
X149062800Y-95507050D01*
X149062800Y-96199200D01*
X149500950Y-96199200D01*
X149558100Y-96142050D01*
X149558100Y-95957330D01*
X150471680Y-95957330D01*
X150471680Y-96194571D01*
X150506482Y-96278591D01*
X150570788Y-96342897D01*
X150654808Y-96377700D01*
X150892050Y-96377700D01*
X150949200Y-96320550D01*
X150949200Y-95900180D01*
X151050800Y-95900180D01*
X151050800Y-96320550D01*
X151107950Y-96377700D01*
X151345192Y-96377700D01*
X151429212Y-96342897D01*
X151493518Y-96278591D01*
X151528320Y-96194571D01*
X151528320Y-95957330D01*
X151471170Y-95900180D01*
X151050800Y-95900180D01*
X150949200Y-95900180D01*
X150528830Y-95900180D01*
X150471680Y-95957330D01*
X149558100Y-95957330D01*
X149558100Y-95633028D01*
X149523297Y-95549008D01*
X149478478Y-95504189D01*
X150471680Y-95504189D01*
X150471680Y-95741430D01*
X150528830Y-95798580D01*
X150949200Y-95798580D01*
X150949200Y-95378210D01*
X151050800Y-95378210D01*
X151050800Y-95798580D01*
X151471170Y-95798580D01*
X151528320Y-95741430D01*
X151528320Y-95504189D01*
X151493518Y-95420169D01*
X151429212Y-95355863D01*
X151345192Y-95321060D01*
X151107950Y-95321060D01*
X151050800Y-95378210D01*
X150949200Y-95378210D01*
X150892050Y-95321060D01*
X150654808Y-95321060D01*
X150570788Y-95355863D01*
X150506482Y-95420169D01*
X150471680Y-95504189D01*
X149478478Y-95504189D01*
X149458991Y-95484702D01*
X149374971Y-95449900D01*
X149119950Y-95449900D01*
X149062800Y-95507050D01*
X148961200Y-95507050D01*
X148904050Y-95449900D01*
X148649029Y-95449900D01*
X148565009Y-95484702D01*
X148500703Y-95549008D01*
X148465900Y-95633028D01*
X148029534Y-95633028D01*
X148020836Y-95589305D01*
X147970311Y-95513689D01*
X147894695Y-95463164D01*
X147805500Y-95445422D01*
X147170500Y-95445422D01*
X147081305Y-95463164D01*
X147005689Y-95513689D01*
X146955164Y-95589305D01*
X146937422Y-95678500D01*
X146937422Y-96023440D01*
X146903801Y-96192463D01*
X146903800Y-98057536D01*
X146937422Y-98226565D01*
X146937422Y-98571500D01*
X146955164Y-98660695D01*
X147005689Y-98736311D01*
X147081305Y-98786836D01*
X147166286Y-98803740D01*
X147176690Y-98819310D01*
X147212742Y-98843399D01*
X147306730Y-98937387D01*
X147235189Y-98985189D01*
X147184664Y-99060805D01*
X147166922Y-99150000D01*
X147166922Y-99550000D01*
X147181858Y-99625090D01*
X147110948Y-99639195D01*
X147101341Y-99641106D01*
X146975314Y-99725314D01*
X146954058Y-99757126D01*
X146257129Y-100454056D01*
X146225314Y-100475314D01*
X146141127Y-100601310D01*
X146141106Y-100601342D01*
X146111536Y-100750000D01*
X146119000Y-100787524D01*
X146119001Y-101761551D01*
X146030953Y-101798022D01*
X145798022Y-102030953D01*
X145671960Y-102335293D01*
X145671960Y-102664707D01*
X145798022Y-102969047D01*
X146030953Y-103201978D01*
X146119001Y-103238449D01*
X146119000Y-104562184D01*
X145812185Y-104869000D01*
X145178600Y-104869000D01*
X145178600Y-104857950D01*
X145121450Y-104800800D01*
X144500800Y-104800800D01*
X144500800Y-104820800D01*
X144399200Y-104820800D01*
X144399200Y-104800800D01*
X143778550Y-104800800D01*
X143721400Y-104857950D01*
X143721400Y-104945471D01*
X143743182Y-104998057D01*
X143734664Y-105010805D01*
X143716922Y-105100000D01*
X143716922Y-105400000D01*
X143734664Y-105489195D01*
X143741884Y-105500000D01*
X143734664Y-105510805D01*
X143716922Y-105600000D01*
X143716922Y-105900000D01*
X143734664Y-105989195D01*
X143785189Y-106064811D01*
X143860805Y-106115336D01*
X143950000Y-106133078D01*
X144950000Y-106133078D01*
X144960447Y-106131000D01*
X145019000Y-106131000D01*
X145019000Y-106195422D01*
X144920500Y-106195422D01*
X144831305Y-106213164D01*
X144755689Y-106263689D01*
X144705164Y-106339305D01*
X144687422Y-106428500D01*
X144687422Y-107571500D01*
X144705164Y-107660695D01*
X144755689Y-107736311D01*
X144806201Y-107770062D01*
X144806201Y-107937422D01*
X144428500Y-107937422D01*
X144339305Y-107955164D01*
X144263689Y-108005689D01*
X144213164Y-108081305D01*
X144195422Y-108170500D01*
X144195422Y-108805500D01*
X144213164Y-108894695D01*
X144263689Y-108970311D01*
X144339305Y-109020836D01*
X144428500Y-109038578D01*
X145571500Y-109038578D01*
X145660695Y-109020836D01*
X145736311Y-108970311D01*
X145786836Y-108894695D01*
X145804578Y-108805500D01*
X145804578Y-108170500D01*
X145786836Y-108081305D01*
X145736311Y-108005689D01*
X145669800Y-107961248D01*
X145669800Y-107770061D01*
X145720311Y-107736311D01*
X145770836Y-107660695D01*
X145788578Y-107571500D01*
X145788578Y-107107950D01*
X146215900Y-107107950D01*
X146215900Y-107616972D01*
X146250703Y-107700992D01*
X146315009Y-107765298D01*
X146399029Y-107800100D01*
X146654050Y-107800100D01*
X146711200Y-107742950D01*
X146711200Y-107050800D01*
X146812800Y-107050800D01*
X146812800Y-107742950D01*
X146869950Y-107800100D01*
X147124971Y-107800100D01*
X147208991Y-107765298D01*
X147273297Y-107700992D01*
X147308100Y-107616972D01*
X147308100Y-107107950D01*
X147250950Y-107050800D01*
X146812800Y-107050800D01*
X146711200Y-107050800D01*
X146273050Y-107050800D01*
X146215900Y-107107950D01*
X145788578Y-107107950D01*
X145788578Y-106428500D01*
X145781000Y-106390403D01*
X145781000Y-106383028D01*
X146215900Y-106383028D01*
X146215900Y-106892050D01*
X146273050Y-106949200D01*
X146711200Y-106949200D01*
X146711200Y-106257050D01*
X146812800Y-106257050D01*
X146812800Y-106949200D01*
X147250950Y-106949200D01*
X147308100Y-106892050D01*
X147308100Y-106383028D01*
X147273297Y-106299008D01*
X147208991Y-106234702D01*
X147124971Y-106199900D01*
X146869950Y-106199900D01*
X146812800Y-106257050D01*
X146711200Y-106257050D01*
X146654050Y-106199900D01*
X146399029Y-106199900D01*
X146315009Y-106234702D01*
X146250703Y-106299008D01*
X146215900Y-106383028D01*
X145781000Y-106383028D01*
X145781000Y-106007524D01*
X145788464Y-105970000D01*
X145758894Y-105821341D01*
X145747544Y-105804355D01*
X145674686Y-105695314D01*
X145642872Y-105674057D01*
X145599815Y-105631000D01*
X145932476Y-105631000D01*
X145970000Y-105638464D01*
X146007524Y-105631000D01*
X146118659Y-105608894D01*
X146244686Y-105524686D01*
X146265944Y-105492871D01*
X146742874Y-105015942D01*
X146774686Y-104994686D01*
X146858894Y-104868659D01*
X146881000Y-104757524D01*
X146881000Y-104757523D01*
X146888464Y-104720001D01*
X146881000Y-104682477D01*
X146881000Y-103238448D01*
X146969047Y-103201978D01*
X147201978Y-102969047D01*
X147328040Y-102664707D01*
X147328040Y-102335293D01*
X147201978Y-102030953D01*
X146969047Y-101798022D01*
X146881000Y-101761552D01*
X146881000Y-100907815D01*
X147166922Y-100621894D01*
X147166922Y-100850000D01*
X147184664Y-100939195D01*
X147235189Y-101014811D01*
X147310805Y-101065336D01*
X147400000Y-101083078D01*
X147468201Y-101083078D01*
X147468201Y-101367474D01*
X147459742Y-101410000D01*
X147493254Y-101578479D01*
X147564601Y-101685258D01*
X147564603Y-101685260D01*
X147588691Y-101721310D01*
X147624740Y-101745397D01*
X147681675Y-101802332D01*
X147653801Y-101942463D01*
X147653800Y-108890017D01*
X145140018Y-111403800D01*
X140834200Y-111403800D01*
X140834200Y-110471982D01*
X141610403Y-109695780D01*
X141643298Y-109673800D01*
X141953143Y-109673800D01*
X142566600Y-110287257D01*
X142590690Y-110323310D01*
X142733520Y-110418746D01*
X142859474Y-110443800D01*
X142859478Y-110443800D01*
X142901999Y-110452258D01*
X142944520Y-110443800D01*
X144229939Y-110443800D01*
X144263689Y-110494311D01*
X144339305Y-110544836D01*
X144428500Y-110562578D01*
X145571500Y-110562578D01*
X145660695Y-110544836D01*
X145736311Y-110494311D01*
X145786836Y-110418695D01*
X145804578Y-110329500D01*
X145804578Y-109694500D01*
X145786836Y-109605305D01*
X145736311Y-109529689D01*
X145660695Y-109479164D01*
X145571500Y-109461422D01*
X144428500Y-109461422D01*
X144339305Y-109479164D01*
X144263689Y-109529689D01*
X144229939Y-109580200D01*
X143080857Y-109580200D01*
X142467400Y-108966743D01*
X142443310Y-108930690D01*
X142300480Y-108835254D01*
X142174526Y-108810200D01*
X142174522Y-108810200D01*
X142132000Y-108801742D01*
X142089478Y-108810200D01*
X141822200Y-108810200D01*
X141822200Y-107607950D01*
X142215900Y-107607950D01*
X142215900Y-108116972D01*
X142250703Y-108200992D01*
X142315009Y-108265298D01*
X142399029Y-108300100D01*
X142654050Y-108300100D01*
X142711200Y-108242950D01*
X142711200Y-107550800D01*
X142812800Y-107550800D01*
X142812800Y-108242950D01*
X142869950Y-108300100D01*
X143124971Y-108300100D01*
X143208991Y-108265298D01*
X143273297Y-108200992D01*
X143308100Y-108116972D01*
X143308100Y-107607950D01*
X143250950Y-107550800D01*
X142812800Y-107550800D01*
X142711200Y-107550800D01*
X142273050Y-107550800D01*
X142215900Y-107607950D01*
X141822200Y-107607950D01*
X141822200Y-107557537D01*
X141833645Y-107500000D01*
X141788578Y-107273434D01*
X141788578Y-106928500D01*
X141779534Y-106883028D01*
X142215900Y-106883028D01*
X142215900Y-107392050D01*
X142273050Y-107449200D01*
X142711200Y-107449200D01*
X142711200Y-106757050D01*
X142812800Y-106757050D01*
X142812800Y-107449200D01*
X143250950Y-107449200D01*
X143308100Y-107392050D01*
X143308100Y-106883028D01*
X143273297Y-106799008D01*
X143208991Y-106734702D01*
X143124971Y-106699900D01*
X142869950Y-106699900D01*
X142812800Y-106757050D01*
X142711200Y-106757050D01*
X142654050Y-106699900D01*
X142399029Y-106699900D01*
X142315009Y-106734702D01*
X142250703Y-106799008D01*
X142215900Y-106883028D01*
X141779534Y-106883028D01*
X141770836Y-106839305D01*
X141720311Y-106763689D01*
X141644695Y-106713164D01*
X141555500Y-106695422D01*
X140920500Y-106695422D01*
X140831305Y-106713164D01*
X140755689Y-106763689D01*
X140705164Y-106839305D01*
X140689948Y-106915800D01*
X140641983Y-106915800D01*
X140134200Y-106408018D01*
X140134200Y-106342464D01*
X140100304Y-106172058D01*
X140071413Y-106128819D01*
X140139195Y-106115336D01*
X140214811Y-106064811D01*
X140265336Y-105989195D01*
X140283078Y-105900000D01*
X140283078Y-105600000D01*
X140265336Y-105510805D01*
X140258116Y-105500000D01*
X140265336Y-105489195D01*
X140283078Y-105400000D01*
X140283078Y-105100000D01*
X140265336Y-105010805D01*
X140258116Y-105000000D01*
X140265336Y-104989195D01*
X140283078Y-104900000D01*
X140283078Y-104600000D01*
X140265336Y-104510805D01*
X140258116Y-104500000D01*
X140265336Y-104489195D01*
X140283078Y-104400000D01*
X140283078Y-104357950D01*
X143721400Y-104357950D01*
X143721400Y-104445471D01*
X143743987Y-104500000D01*
X143721400Y-104554529D01*
X143721400Y-104642050D01*
X143778550Y-104699200D01*
X144399200Y-104699200D01*
X144399200Y-104300800D01*
X144500800Y-104300800D01*
X144500800Y-104699200D01*
X145121450Y-104699200D01*
X145178600Y-104642050D01*
X145178600Y-104554529D01*
X145156013Y-104500000D01*
X145178600Y-104445471D01*
X145178600Y-104357950D01*
X145121450Y-104300800D01*
X144500800Y-104300800D01*
X144399200Y-104300800D01*
X143778550Y-104300800D01*
X143721400Y-104357950D01*
X140283078Y-104357950D01*
X140283078Y-104100000D01*
X140274034Y-104054529D01*
X143721400Y-104054529D01*
X143721400Y-104142050D01*
X143778550Y-104199200D01*
X144399200Y-104199200D01*
X144399200Y-103928550D01*
X144500800Y-103928550D01*
X144500800Y-104199200D01*
X145121450Y-104199200D01*
X145178600Y-104142050D01*
X145178600Y-104054529D01*
X145143798Y-103970509D01*
X145079492Y-103906203D01*
X144995472Y-103871400D01*
X144557950Y-103871400D01*
X144500800Y-103928550D01*
X144399200Y-103928550D01*
X144342050Y-103871400D01*
X143904528Y-103871400D01*
X143820508Y-103906203D01*
X143756202Y-103970509D01*
X143721400Y-104054529D01*
X140274034Y-104054529D01*
X140265336Y-104010805D01*
X140214811Y-103935189D01*
X140139195Y-103884664D01*
X140050000Y-103866922D01*
X139050000Y-103866922D01*
X138960805Y-103884664D01*
X138908220Y-103919800D01*
X138886773Y-103919800D01*
X138830200Y-103863227D01*
X138830200Y-101142516D01*
X138836668Y-101109999D01*
X138830200Y-101077482D01*
X138830200Y-101077478D01*
X138811042Y-100981162D01*
X138738061Y-100871939D01*
X138710489Y-100853516D01*
X137273078Y-99416105D01*
X137273078Y-97700000D01*
X137255336Y-97610805D01*
X137204811Y-97535189D01*
X137129195Y-97484664D01*
X137040000Y-97466922D01*
X135040000Y-97466922D01*
X134950805Y-97484664D01*
X134875189Y-97535189D01*
X134824664Y-97610805D01*
X134806922Y-97700000D01*
X134806922Y-99600000D01*
X134824664Y-99689195D01*
X134875189Y-99764811D01*
X134950805Y-99815336D01*
X135040000Y-99833078D01*
X136756105Y-99833078D01*
X138169801Y-101246774D01*
X138169800Y-103932827D01*
X137756484Y-103519511D01*
X137738061Y-103491939D01*
X137628838Y-103418958D01*
X137532522Y-103399800D01*
X137500000Y-103393331D01*
X137467478Y-103399800D01*
X137178934Y-103399800D01*
X137039169Y-103062377D01*
X136707623Y-102730831D01*
X136274438Y-102551400D01*
X135805562Y-102551400D01*
X135372377Y-102730831D01*
X135040831Y-103062377D01*
X134861400Y-103495562D01*
X134861400Y-103964438D01*
X135040831Y-104397623D01*
X135372377Y-104729169D01*
X135805562Y-104908600D01*
X136274438Y-104908600D01*
X136707623Y-104729169D01*
X137039169Y-104397623D01*
X137178934Y-104060200D01*
X137363227Y-104060200D01*
X138263517Y-104960491D01*
X138281939Y-104988061D01*
X138299807Y-105000000D01*
X138281939Y-105011939D01*
X138263517Y-105039509D01*
X137363227Y-105939800D01*
X137178934Y-105939800D01*
X137039169Y-105602377D01*
X136707623Y-105270831D01*
X136274438Y-105091400D01*
X135805562Y-105091400D01*
X135372377Y-105270831D01*
X135040831Y-105602377D01*
X134861400Y-106035562D01*
X134861400Y-106504438D01*
X135040831Y-106937623D01*
X135372377Y-107269169D01*
X135805562Y-107448600D01*
X136274438Y-107448600D01*
X136707623Y-107269169D01*
X137039169Y-106937623D01*
X137178934Y-106600200D01*
X137467478Y-106600200D01*
X137500000Y-106606669D01*
X137532522Y-106600200D01*
X137628838Y-106581042D01*
X137738061Y-106508061D01*
X137756484Y-106480489D01*
X138656774Y-105580200D01*
X138820860Y-105580200D01*
X138816922Y-105600000D01*
X138816922Y-105900000D01*
X138834664Y-105989195D01*
X138885189Y-106064811D01*
X138960805Y-106115336D01*
X139028587Y-106128819D01*
X138999696Y-106172057D01*
X138965800Y-106342463D01*
X138965800Y-106592464D01*
X138954355Y-106650000D01*
X138965800Y-106707536D01*
X138999696Y-106877942D01*
X139128815Y-107071185D01*
X139177599Y-107103781D01*
X139946220Y-107872403D01*
X139978815Y-107921185D01*
X140118096Y-108014249D01*
X140172056Y-108050304D01*
X140400000Y-108095645D01*
X140457537Y-108084200D01*
X140653800Y-108084200D01*
X140653801Y-109000016D01*
X139877599Y-109776219D01*
X139828815Y-109808815D01*
X139699696Y-110002058D01*
X139667614Y-110163346D01*
X139654355Y-110230000D01*
X139665800Y-110287537D01*
X139665801Y-111403800D01*
X138442463Y-111403800D01*
X138273434Y-111437422D01*
X137928500Y-111437422D01*
X137839305Y-111455164D01*
X137763689Y-111505689D01*
X137729939Y-111556200D01*
X137614522Y-111556200D01*
X137572000Y-111547742D01*
X137529478Y-111556200D01*
X137529474Y-111556200D01*
X137403520Y-111581254D01*
X137296741Y-111652601D01*
X137296740Y-111652602D01*
X137260690Y-111676690D01*
X137236602Y-111712740D01*
X137115147Y-111834195D01*
X137218600Y-111584438D01*
X137218600Y-111115562D01*
X137039169Y-110682377D01*
X136707623Y-110350831D01*
X136274438Y-110171400D01*
X135805562Y-110171400D01*
X135372377Y-110350831D01*
X135109808Y-110613400D01*
X134430192Y-110613400D01*
X134167623Y-110350831D01*
X133734438Y-110171400D01*
X133265562Y-110171400D01*
X132832377Y-110350831D01*
X132500831Y-110682377D01*
X132321400Y-111115562D01*
X132321400Y-111584438D01*
X132500831Y-112017623D01*
X132715901Y-112232693D01*
X132715900Y-113927455D01*
X132701470Y-114000000D01*
X132758639Y-114287407D01*
X132774611Y-114311310D01*
X132774922Y-114311775D01*
X132774922Y-114698500D01*
X132792664Y-114787695D01*
X132838571Y-114856400D01*
X132157389Y-114856400D01*
X132185797Y-114827992D01*
X132220600Y-114743972D01*
X132220600Y-114107950D01*
X132163450Y-114050800D01*
X131598300Y-114050800D01*
X131598300Y-114070800D01*
X131496700Y-114070800D01*
X131496700Y-114050800D01*
X130931550Y-114050800D01*
X130874400Y-114107950D01*
X130874400Y-114743972D01*
X130909203Y-114827992D01*
X130937611Y-114856400D01*
X129753600Y-114856400D01*
X129753600Y-113256028D01*
X130874400Y-113256028D01*
X130874400Y-113892050D01*
X130931550Y-113949200D01*
X131496700Y-113949200D01*
X131496700Y-113130050D01*
X131598300Y-113130050D01*
X131598300Y-113949200D01*
X132163450Y-113949200D01*
X132220600Y-113892050D01*
X132220600Y-113256028D01*
X132185797Y-113172008D01*
X132121491Y-113107702D01*
X132037471Y-113072900D01*
X131655450Y-113072900D01*
X131598300Y-113130050D01*
X131496700Y-113130050D01*
X131439550Y-113072900D01*
X131057529Y-113072900D01*
X130973509Y-113107702D01*
X130909203Y-113172008D01*
X130874400Y-113256028D01*
X129753600Y-113256028D01*
X129753600Y-109654435D01*
X132727407Y-109654435D01*
X132835393Y-109811178D01*
X133269118Y-109989302D01*
X133737992Y-109987888D01*
X134164607Y-109811178D01*
X134272593Y-109654435D01*
X135267407Y-109654435D01*
X135375393Y-109811178D01*
X135809118Y-109989302D01*
X136277992Y-109987888D01*
X136704607Y-109811178D01*
X136812593Y-109654435D01*
X136040000Y-108881842D01*
X135267407Y-109654435D01*
X134272593Y-109654435D01*
X133500000Y-108881842D01*
X132727407Y-109654435D01*
X129753600Y-109654435D01*
X129753600Y-108579118D01*
X132320698Y-108579118D01*
X132322112Y-109047992D01*
X132498822Y-109474607D01*
X132655565Y-109582593D01*
X133428158Y-108810000D01*
X133571842Y-108810000D01*
X134344435Y-109582593D01*
X134501178Y-109474607D01*
X134679302Y-109040882D01*
X134677910Y-108579118D01*
X134860698Y-108579118D01*
X134862112Y-109047992D01*
X135038822Y-109474607D01*
X135195565Y-109582593D01*
X135968158Y-108810000D01*
X136111842Y-108810000D01*
X136884435Y-109582593D01*
X137041178Y-109474607D01*
X137219302Y-109040882D01*
X137217888Y-108572008D01*
X137041178Y-108145393D01*
X136884435Y-108037407D01*
X136111842Y-108810000D01*
X135968158Y-108810000D01*
X135195565Y-108037407D01*
X135038822Y-108145393D01*
X134860698Y-108579118D01*
X134677910Y-108579118D01*
X134677888Y-108572008D01*
X134501178Y-108145393D01*
X134344435Y-108037407D01*
X133571842Y-108810000D01*
X133428158Y-108810000D01*
X132655565Y-108037407D01*
X132498822Y-108145393D01*
X132320698Y-108579118D01*
X129753600Y-108579118D01*
X129753600Y-107965565D01*
X132727407Y-107965565D01*
X133500000Y-108738158D01*
X134272593Y-107965565D01*
X135267407Y-107965565D01*
X136040000Y-108738158D01*
X136812593Y-107965565D01*
X136704607Y-107808822D01*
X136270882Y-107630698D01*
X135802008Y-107632112D01*
X135375393Y-107808822D01*
X135267407Y-107965565D01*
X134272593Y-107965565D01*
X134164607Y-107808822D01*
X133730882Y-107630698D01*
X133262008Y-107632112D01*
X132835393Y-107808822D01*
X132727407Y-107965565D01*
X129753600Y-107965565D01*
X129753600Y-106035562D01*
X132321400Y-106035562D01*
X132321400Y-106504438D01*
X132500831Y-106937623D01*
X132832377Y-107269169D01*
X133265562Y-107448600D01*
X133734438Y-107448600D01*
X134167623Y-107269169D01*
X134499169Y-106937623D01*
X134678600Y-106504438D01*
X134678600Y-106035562D01*
X134499169Y-105602377D01*
X134167623Y-105270831D01*
X133734438Y-105091400D01*
X133265562Y-105091400D01*
X132832377Y-105270831D01*
X132500831Y-105602377D01*
X132321400Y-106035562D01*
X129753600Y-106035562D01*
X129753600Y-103495562D01*
X132321400Y-103495562D01*
X132321400Y-103964438D01*
X132500831Y-104397623D01*
X132832377Y-104729169D01*
X133265562Y-104908600D01*
X133734438Y-104908600D01*
X134167623Y-104729169D01*
X134499169Y-104397623D01*
X134678600Y-103964438D01*
X134678600Y-103495562D01*
X134499169Y-103062377D01*
X134167623Y-102730831D01*
X133734438Y-102551400D01*
X133265562Y-102551400D01*
X132832377Y-102730831D01*
X132500831Y-103062377D01*
X132321400Y-103495562D01*
X129753600Y-103495562D01*
X129753600Y-100955562D01*
X132321400Y-100955562D01*
X132321400Y-101424438D01*
X132500831Y-101857623D01*
X132832377Y-102189169D01*
X133265562Y-102368600D01*
X133734438Y-102368600D01*
X134167623Y-102189169D01*
X134499169Y-101857623D01*
X134678600Y-101424438D01*
X134678600Y-100955562D01*
X134861400Y-100955562D01*
X134861400Y-101424438D01*
X135040831Y-101857623D01*
X135372377Y-102189169D01*
X135805562Y-102368600D01*
X136274438Y-102368600D01*
X136707623Y-102189169D01*
X137039169Y-101857623D01*
X137218600Y-101424438D01*
X137218600Y-100955562D01*
X137039169Y-100522377D01*
X136707623Y-100190831D01*
X136274438Y-100011400D01*
X135805562Y-100011400D01*
X135372377Y-100190831D01*
X135040831Y-100522377D01*
X134861400Y-100955562D01*
X134678600Y-100955562D01*
X134499169Y-100522377D01*
X134167623Y-100190831D01*
X133734438Y-100011400D01*
X133265562Y-100011400D01*
X132832377Y-100190831D01*
X132500831Y-100522377D01*
X132321400Y-100955562D01*
X129753600Y-100955562D01*
X129753600Y-98415562D01*
X132321400Y-98415562D01*
X132321400Y-98884438D01*
X132500831Y-99317623D01*
X132832377Y-99649169D01*
X133265562Y-99828600D01*
X133734438Y-99828600D01*
X134167623Y-99649169D01*
X134499169Y-99317623D01*
X134678600Y-98884438D01*
X134678600Y-98415562D01*
X134499169Y-97982377D01*
X134167623Y-97650831D01*
X133734438Y-97471400D01*
X133265562Y-97471400D01*
X132832377Y-97650831D01*
X132500831Y-97982377D01*
X132321400Y-98415562D01*
X129753600Y-98415562D01*
X129753600Y-95143600D01*
X167246400Y-95143600D01*
X167246400Y-99843800D01*
G36*
X155423800Y-110003800D02*
X152576200Y-110003800D01*
X152576200Y-107026200D01*
X155423800Y-107026200D01*
X155423800Y-110003800D01*
X155423800Y-110003800D01*
G37*
X155423800Y-110003800D02*
X152576200Y-110003800D01*
X152576200Y-107026200D01*
X155423800Y-107026200D01*
X155423800Y-110003800D01*
G04 #@! TD*
M02*
