M48
;DRILL file {KiCad 5.0.2} date jeu. 10 sept. 2020 14:17:06 CEST
;FORMAT={-:-/ absolute / inch / decimal}
FMAT,2
INCH,TZ
T1C0.0120
T2C0.0315
T3C0.0433
T4C0.0469
T5C0.0600
%
G90
G05
T1
X5.1378Y-4.4882
X5.2953Y-3.7894
X5.4528Y-4.5079
X5.5217Y-4.5079
X5.5906Y-4.1339
X5.6594Y-4.2323
X5.687Y-4.0748
X5.7382Y-4.1142
X5.7677Y-4.0354
X5.7776Y-4.2618
X5.9055Y-3.7894
X5.9547Y-3.937
X5.9547Y-4.0157
X5.9547Y-4.0945
X5.9547Y-4.1732
X5.9547Y-4.252
X5.9547Y-4.3307
X5.9843Y-3.7736
X6.0236Y-4.311
X6.063Y-4.311
X6.1024Y-4.311
X6.1713Y-3.7795
X6.565Y-3.7598
X6.565Y-4.3701
T2
X5.6299Y-4.4882
T3
X5.3559Y-3.8839
T4
X5.2559Y-3.8839
X5.2559Y-3.9839
X5.2559Y-4.0839
X5.2559Y-4.1839
X5.2559Y-4.2839
X5.2559Y-4.3839
X5.3559Y-3.9839
X5.3559Y-4.0839
X5.3559Y-4.1839
X5.3559Y-4.2839
X5.3559Y-4.3839
T5
X6.3961Y-4.0339
X6.3961Y-4.2339
T0
M30
