G04 #@! TF.GenerationSoftware,KiCad,Pcbnew,5.0.2*
G04 #@! TF.CreationDate,2020-09-10T14:17:03+02:00*
G04 #@! TF.ProjectId,pmod-ct,706d6f64-2d63-4742-9e6b-696361645f70,1*
G04 #@! TF.SameCoordinates,Original*
G04 #@! TF.FileFunction,Soldermask,Top*
G04 #@! TF.FilePolarity,Negative*
%FSLAX46Y46*%
G04 Gerber Fmt 4.6, Leading zero omitted, Abs format (unit mm)*
G04 Created by KiCad (PCBNEW 5.0.2) date jeu. 10 sept. 2020 14:17:03 CEST*
%MOMM*%
%LPD*%
G01*
G04 APERTURE LIST*
%ADD10C,0.100000*%
G04 APERTURE END LIST*
D10*
G36*
X143237142Y-113218242D02*
X143385102Y-113279530D01*
X143518258Y-113368502D01*
X143631498Y-113481742D01*
X143720470Y-113614898D01*
X143781758Y-113762858D01*
X143813000Y-113919925D01*
X143813000Y-114080075D01*
X143781758Y-114237142D01*
X143720470Y-114385102D01*
X143631498Y-114518258D01*
X143518258Y-114631498D01*
X143385102Y-114720470D01*
X143237142Y-114781758D01*
X143080075Y-114813000D01*
X142919925Y-114813000D01*
X142762858Y-114781758D01*
X142614898Y-114720470D01*
X142481742Y-114631498D01*
X142368502Y-114518258D01*
X142279530Y-114385102D01*
X142218242Y-114237142D01*
X142187000Y-114080075D01*
X142187000Y-113919925D01*
X142218242Y-113762858D01*
X142279530Y-113614898D01*
X142368502Y-113481742D01*
X142481742Y-113368502D01*
X142614898Y-113279530D01*
X142762858Y-113218242D01*
X142919925Y-113187000D01*
X143080075Y-113187000D01*
X143237142Y-113218242D01*
X143237142Y-113218242D01*
G37*
G36*
X133948000Y-114749500D02*
X132957000Y-114749500D01*
X132957000Y-113250500D01*
X133948000Y-113250500D01*
X133948000Y-114749500D01*
X133948000Y-114749500D01*
G37*
G36*
X132043000Y-114749500D02*
X131052000Y-114749500D01*
X131052000Y-113250500D01*
X132043000Y-113250500D01*
X132043000Y-114749500D01*
X132043000Y-114749500D01*
G37*
G36*
X137130500Y-114622500D02*
X136393500Y-114622500D01*
X136393500Y-113377500D01*
X137130500Y-113377500D01*
X137130500Y-114622500D01*
X137130500Y-114622500D01*
G37*
G36*
X135606500Y-114622500D02*
X134869500Y-114622500D01*
X134869500Y-113377500D01*
X135606500Y-113377500D01*
X135606500Y-114622500D01*
X135606500Y-114622500D01*
G37*
G36*
X139122500Y-113880500D02*
X137877500Y-113880500D01*
X137877500Y-113143500D01*
X139122500Y-113143500D01*
X139122500Y-113880500D01*
X139122500Y-113880500D01*
G37*
G36*
X140872500Y-113880500D02*
X139627500Y-113880500D01*
X139627500Y-113143500D01*
X140872500Y-113143500D01*
X140872500Y-113880500D01*
X140872500Y-113880500D01*
G37*
G36*
X140872500Y-112356500D02*
X139627500Y-112356500D01*
X139627500Y-111619500D01*
X140872500Y-111619500D01*
X140872500Y-112356500D01*
X140872500Y-112356500D01*
G37*
G36*
X139122500Y-112356500D02*
X137877500Y-112356500D01*
X137877500Y-111619500D01*
X139122500Y-111619500D01*
X139122500Y-112356500D01*
X139122500Y-112356500D01*
G37*
G36*
X133791981Y-110387468D02*
X133974150Y-110462925D01*
X134138103Y-110572475D01*
X134277525Y-110711897D01*
X134387075Y-110875850D01*
X134462532Y-111058019D01*
X134501000Y-111251410D01*
X134501000Y-111448590D01*
X134462532Y-111641981D01*
X134387075Y-111824150D01*
X134277525Y-111988103D01*
X134138103Y-112127525D01*
X133974150Y-112237075D01*
X133791981Y-112312532D01*
X133598590Y-112351000D01*
X133401410Y-112351000D01*
X133208019Y-112312532D01*
X133025850Y-112237075D01*
X132861897Y-112127525D01*
X132722475Y-111988103D01*
X132612925Y-111824150D01*
X132537468Y-111641981D01*
X132499000Y-111448590D01*
X132499000Y-111251410D01*
X132537468Y-111058019D01*
X132612925Y-110875850D01*
X132722475Y-110711897D01*
X132861897Y-110572475D01*
X133025850Y-110462925D01*
X133208019Y-110387468D01*
X133401410Y-110349000D01*
X133598590Y-110349000D01*
X133791981Y-110387468D01*
X133791981Y-110387468D01*
G37*
G36*
X136331981Y-110387468D02*
X136514150Y-110462925D01*
X136678103Y-110572475D01*
X136817525Y-110711897D01*
X136927075Y-110875850D01*
X137002532Y-111058019D01*
X137041000Y-111251410D01*
X137041000Y-111448590D01*
X137002532Y-111641981D01*
X136927075Y-111824150D01*
X136817525Y-111988103D01*
X136678103Y-112127525D01*
X136514150Y-112237075D01*
X136331981Y-112312532D01*
X136138590Y-112351000D01*
X135941410Y-112351000D01*
X135748019Y-112312532D01*
X135565850Y-112237075D01*
X135401897Y-112127525D01*
X135262475Y-111988103D01*
X135152925Y-111824150D01*
X135077468Y-111641981D01*
X135039000Y-111448590D01*
X135039000Y-111251410D01*
X135077468Y-111058019D01*
X135152925Y-110875850D01*
X135262475Y-110711897D01*
X135401897Y-110572475D01*
X135565850Y-110462925D01*
X135748019Y-110387468D01*
X135941410Y-110349000D01*
X136138590Y-110349000D01*
X136331981Y-110387468D01*
X136331981Y-110387468D01*
G37*
G36*
X145622500Y-110380500D02*
X144377500Y-110380500D01*
X144377500Y-109643500D01*
X145622500Y-109643500D01*
X145622500Y-110380500D01*
X145622500Y-110380500D01*
G37*
G36*
X136331981Y-107847468D02*
X136514150Y-107922925D01*
X136678103Y-108032475D01*
X136817525Y-108171897D01*
X136927075Y-108335850D01*
X137002532Y-108518019D01*
X137041000Y-108711410D01*
X137041000Y-108908590D01*
X137002532Y-109101981D01*
X136927075Y-109284150D01*
X136817525Y-109448103D01*
X136678103Y-109587525D01*
X136514150Y-109697075D01*
X136331981Y-109772532D01*
X136138590Y-109811000D01*
X135941410Y-109811000D01*
X135748019Y-109772532D01*
X135565850Y-109697075D01*
X135401897Y-109587525D01*
X135262475Y-109448103D01*
X135152925Y-109284150D01*
X135077468Y-109101981D01*
X135039000Y-108908590D01*
X135039000Y-108711410D01*
X135077468Y-108518019D01*
X135152925Y-108335850D01*
X135262475Y-108171897D01*
X135401897Y-108032475D01*
X135565850Y-107922925D01*
X135748019Y-107847468D01*
X135941410Y-107809000D01*
X136138590Y-107809000D01*
X136331981Y-107847468D01*
X136331981Y-107847468D01*
G37*
G36*
X133791981Y-107847468D02*
X133974150Y-107922925D01*
X134138103Y-108032475D01*
X134277525Y-108171897D01*
X134387075Y-108335850D01*
X134462532Y-108518019D01*
X134501000Y-108711410D01*
X134501000Y-108908590D01*
X134462532Y-109101981D01*
X134387075Y-109284150D01*
X134277525Y-109448103D01*
X134138103Y-109587525D01*
X133974150Y-109697075D01*
X133791981Y-109772532D01*
X133598590Y-109811000D01*
X133401410Y-109811000D01*
X133208019Y-109772532D01*
X133025850Y-109697075D01*
X132861897Y-109587525D01*
X132722475Y-109448103D01*
X132612925Y-109284150D01*
X132537468Y-109101981D01*
X132499000Y-108908590D01*
X132499000Y-108711410D01*
X132537468Y-108518019D01*
X132612925Y-108335850D01*
X132722475Y-108171897D01*
X132861897Y-108032475D01*
X133025850Y-107922925D01*
X133208019Y-107847468D01*
X133401410Y-107809000D01*
X133598590Y-107809000D01*
X133791981Y-107847468D01*
X133791981Y-107847468D01*
G37*
G36*
X155551000Y-109001000D02*
X152449000Y-109001000D01*
X152449000Y-106899000D01*
X155551000Y-106899000D01*
X155551000Y-109001000D01*
X155551000Y-109001000D01*
G37*
G36*
X163781000Y-108861000D02*
X161139000Y-108861000D01*
X161139000Y-106219000D01*
X163781000Y-106219000D01*
X163781000Y-108861000D01*
X163781000Y-108861000D01*
G37*
G36*
X145622500Y-108856500D02*
X144377500Y-108856500D01*
X144377500Y-108119500D01*
X145622500Y-108119500D01*
X145622500Y-108856500D01*
X145622500Y-108856500D01*
G37*
G36*
X141606500Y-108122500D02*
X140869500Y-108122500D01*
X140869500Y-106877500D01*
X141606500Y-106877500D01*
X141606500Y-108122500D01*
X141606500Y-108122500D01*
G37*
G36*
X143130500Y-108122500D02*
X142393500Y-108122500D01*
X142393500Y-106877500D01*
X143130500Y-106877500D01*
X143130500Y-108122500D01*
X143130500Y-108122500D01*
G37*
G36*
X147130500Y-107622500D02*
X146393500Y-107622500D01*
X146393500Y-106377500D01*
X147130500Y-106377500D01*
X147130500Y-107622500D01*
X147130500Y-107622500D01*
G37*
G36*
X145606500Y-107622500D02*
X144869500Y-107622500D01*
X144869500Y-106377500D01*
X145606500Y-106377500D01*
X145606500Y-107622500D01*
X145606500Y-107622500D01*
G37*
G36*
X133791981Y-105307468D02*
X133974150Y-105382925D01*
X134138103Y-105492475D01*
X134277525Y-105631897D01*
X134387075Y-105795850D01*
X134462532Y-105978019D01*
X134501000Y-106171410D01*
X134501000Y-106368590D01*
X134462532Y-106561981D01*
X134387075Y-106744150D01*
X134277525Y-106908103D01*
X134138103Y-107047525D01*
X133974150Y-107157075D01*
X133791981Y-107232532D01*
X133598590Y-107271000D01*
X133401410Y-107271000D01*
X133208019Y-107232532D01*
X133025850Y-107157075D01*
X132861897Y-107047525D01*
X132722475Y-106908103D01*
X132612925Y-106744150D01*
X132537468Y-106561981D01*
X132499000Y-106368590D01*
X132499000Y-106171410D01*
X132537468Y-105978019D01*
X132612925Y-105795850D01*
X132722475Y-105631897D01*
X132861897Y-105492475D01*
X133025850Y-105382925D01*
X133208019Y-105307468D01*
X133401410Y-105269000D01*
X133598590Y-105269000D01*
X133791981Y-105307468D01*
X133791981Y-105307468D01*
G37*
G36*
X136331981Y-105307468D02*
X136514150Y-105382925D01*
X136678103Y-105492475D01*
X136817525Y-105631897D01*
X136927075Y-105795850D01*
X137002532Y-105978019D01*
X137041000Y-106171410D01*
X137041000Y-106368590D01*
X137002532Y-106561981D01*
X136927075Y-106744150D01*
X136817525Y-106908103D01*
X136678103Y-107047525D01*
X136514150Y-107157075D01*
X136331981Y-107232532D01*
X136138590Y-107271000D01*
X135941410Y-107271000D01*
X135748019Y-107232532D01*
X135565850Y-107157075D01*
X135401897Y-107047525D01*
X135262475Y-106908103D01*
X135152925Y-106744150D01*
X135077468Y-106561981D01*
X135039000Y-106368590D01*
X135039000Y-106171410D01*
X135077468Y-105978019D01*
X135152925Y-105795850D01*
X135262475Y-105631897D01*
X135401897Y-105492475D01*
X135565850Y-105382925D01*
X135748019Y-105307468D01*
X135941410Y-105269000D01*
X136138590Y-105269000D01*
X136331981Y-105307468D01*
X136331981Y-105307468D01*
G37*
G36*
X140120000Y-105970000D02*
X138980000Y-105970000D01*
X138980000Y-104030000D01*
X140120000Y-104030000D01*
X140120000Y-105970000D01*
X140120000Y-105970000D01*
G37*
G36*
X145020000Y-105970000D02*
X143880000Y-105970000D01*
X143880000Y-104030000D01*
X145020000Y-104030000D01*
X145020000Y-105970000D01*
X145020000Y-105970000D01*
G37*
G36*
X136331981Y-102767468D02*
X136514150Y-102842925D01*
X136678103Y-102952475D01*
X136817525Y-103091897D01*
X136927075Y-103255850D01*
X137002532Y-103438019D01*
X137041000Y-103631410D01*
X137041000Y-103828590D01*
X137002532Y-104021981D01*
X136927075Y-104204150D01*
X136817525Y-104368103D01*
X136678103Y-104507525D01*
X136514150Y-104617075D01*
X136331981Y-104692532D01*
X136138590Y-104731000D01*
X135941410Y-104731000D01*
X135748019Y-104692532D01*
X135565850Y-104617075D01*
X135401897Y-104507525D01*
X135262475Y-104368103D01*
X135152925Y-104204150D01*
X135077468Y-104021981D01*
X135039000Y-103828590D01*
X135039000Y-103631410D01*
X135077468Y-103438019D01*
X135152925Y-103255850D01*
X135262475Y-103091897D01*
X135401897Y-102952475D01*
X135565850Y-102842925D01*
X135748019Y-102767468D01*
X135941410Y-102729000D01*
X136138590Y-102729000D01*
X136331981Y-102767468D01*
X136331981Y-102767468D01*
G37*
G36*
X133791981Y-102767468D02*
X133974150Y-102842925D01*
X134138103Y-102952475D01*
X134277525Y-103091897D01*
X134387075Y-103255850D01*
X134462532Y-103438019D01*
X134501000Y-103631410D01*
X134501000Y-103828590D01*
X134462532Y-104021981D01*
X134387075Y-104204150D01*
X134277525Y-104368103D01*
X134138103Y-104507525D01*
X133974150Y-104617075D01*
X133791981Y-104692532D01*
X133598590Y-104731000D01*
X133401410Y-104731000D01*
X133208019Y-104692532D01*
X133025850Y-104617075D01*
X132861897Y-104507525D01*
X132722475Y-104368103D01*
X132612925Y-104204150D01*
X132537468Y-104021981D01*
X132499000Y-103828590D01*
X132499000Y-103631410D01*
X132537468Y-103438019D01*
X132612925Y-103255850D01*
X132722475Y-103091897D01*
X132861897Y-102952475D01*
X133025850Y-102842925D01*
X133208019Y-102767468D01*
X133401410Y-102729000D01*
X133598590Y-102729000D01*
X133791981Y-102767468D01*
X133791981Y-102767468D01*
G37*
G36*
X162760250Y-101172843D02*
X162845322Y-101189765D01*
X162915735Y-101218931D01*
X163085728Y-101289344D01*
X163302092Y-101433914D01*
X163486086Y-101617908D01*
X163630656Y-101834272D01*
X163697136Y-101994770D01*
X163730235Y-102074678D01*
X163781000Y-102329893D01*
X163781000Y-102590107D01*
X163730712Y-102842926D01*
X163730235Y-102845321D01*
X163630656Y-103085728D01*
X163486086Y-103302092D01*
X163302092Y-103486086D01*
X163085728Y-103630656D01*
X162915735Y-103701069D01*
X162845322Y-103730235D01*
X162760250Y-103747157D01*
X162590109Y-103781000D01*
X162329891Y-103781000D01*
X162159750Y-103747157D01*
X162074678Y-103730235D01*
X162004265Y-103701069D01*
X161834272Y-103630656D01*
X161617908Y-103486086D01*
X161433914Y-103302092D01*
X161289344Y-103085728D01*
X161189765Y-102845321D01*
X161189289Y-102842926D01*
X161139000Y-102590107D01*
X161139000Y-102329893D01*
X161189765Y-102074678D01*
X161222864Y-101994770D01*
X161289344Y-101834272D01*
X161433914Y-101617908D01*
X161617908Y-101433914D01*
X161834272Y-101289344D01*
X162004265Y-101218931D01*
X162074678Y-101189765D01*
X162159750Y-101172843D01*
X162329891Y-101139000D01*
X162590109Y-101139000D01*
X162760250Y-101172843D01*
X162760250Y-101172843D01*
G37*
G36*
X146689726Y-101874556D02*
X146808099Y-101923587D01*
X146914634Y-101994772D01*
X147005228Y-102085366D01*
X147076413Y-102191901D01*
X147125444Y-102310274D01*
X147150440Y-102435937D01*
X147150440Y-102564063D01*
X147125444Y-102689726D01*
X147076413Y-102808099D01*
X147005228Y-102914634D01*
X146914634Y-103005228D01*
X146808099Y-103076413D01*
X146689726Y-103125444D01*
X146564063Y-103150440D01*
X146435937Y-103150440D01*
X146310274Y-103125444D01*
X146191901Y-103076413D01*
X146085366Y-103005228D01*
X145994772Y-102914634D01*
X145923587Y-102808099D01*
X145874556Y-102689726D01*
X145849560Y-102564063D01*
X145849560Y-102435937D01*
X145874556Y-102310274D01*
X145923587Y-102191901D01*
X145994772Y-102085366D01*
X146085366Y-101994772D01*
X146191901Y-101923587D01*
X146310274Y-101874556D01*
X146435937Y-101849560D01*
X146564063Y-101849560D01*
X146689726Y-101874556D01*
X146689726Y-101874556D01*
G37*
G36*
X155551000Y-103101000D02*
X152449000Y-103101000D01*
X152449000Y-100999000D01*
X155551000Y-100999000D01*
X155551000Y-103101000D01*
X155551000Y-103101000D01*
G37*
G36*
X150130500Y-102622500D02*
X149393500Y-102622500D01*
X149393500Y-101377500D01*
X150130500Y-101377500D01*
X150130500Y-102622500D01*
X150130500Y-102622500D01*
G37*
G36*
X148606500Y-102622500D02*
X147869500Y-102622500D01*
X147869500Y-101377500D01*
X148606500Y-101377500D01*
X148606500Y-102622500D01*
X148606500Y-102622500D01*
G37*
G36*
X133791981Y-100227468D02*
X133974150Y-100302925D01*
X134138103Y-100412475D01*
X134277525Y-100551897D01*
X134387075Y-100715850D01*
X134462532Y-100898019D01*
X134501000Y-101091410D01*
X134501000Y-101288590D01*
X134462532Y-101481981D01*
X134387075Y-101664150D01*
X134277525Y-101828103D01*
X134138103Y-101967525D01*
X133974150Y-102077075D01*
X133791981Y-102152532D01*
X133598590Y-102191000D01*
X133401410Y-102191000D01*
X133208019Y-102152532D01*
X133025850Y-102077075D01*
X132861897Y-101967525D01*
X132722475Y-101828103D01*
X132612925Y-101664150D01*
X132537468Y-101481981D01*
X132499000Y-101288590D01*
X132499000Y-101091410D01*
X132537468Y-100898019D01*
X132612925Y-100715850D01*
X132722475Y-100551897D01*
X132861897Y-100412475D01*
X133025850Y-100302925D01*
X133208019Y-100227468D01*
X133401410Y-100189000D01*
X133598590Y-100189000D01*
X133791981Y-100227468D01*
X133791981Y-100227468D01*
G37*
G36*
X136331981Y-100227468D02*
X136514150Y-100302925D01*
X136678103Y-100412475D01*
X136817525Y-100551897D01*
X136927075Y-100715850D01*
X137002532Y-100898019D01*
X137041000Y-101091410D01*
X137041000Y-101288590D01*
X137002532Y-101481981D01*
X136927075Y-101664150D01*
X136817525Y-101828103D01*
X136678103Y-101967525D01*
X136514150Y-102077075D01*
X136331981Y-102152532D01*
X136138590Y-102191000D01*
X135941410Y-102191000D01*
X135748019Y-102152532D01*
X135565850Y-102077075D01*
X135401897Y-101967525D01*
X135262475Y-101828103D01*
X135152925Y-101664150D01*
X135077468Y-101481981D01*
X135039000Y-101288590D01*
X135039000Y-101091410D01*
X135077468Y-100898019D01*
X135152925Y-100715850D01*
X135262475Y-100551897D01*
X135401897Y-100412475D01*
X135565850Y-100302925D01*
X135748019Y-100227468D01*
X135941410Y-100189000D01*
X136138590Y-100189000D01*
X136331981Y-100227468D01*
X136331981Y-100227468D01*
G37*
G36*
X150650000Y-100900000D02*
X149550000Y-100900000D01*
X149550000Y-99100000D01*
X150650000Y-99100000D01*
X150650000Y-100900000D01*
X150650000Y-100900000D01*
G37*
G36*
X148450000Y-100900000D02*
X147350000Y-100900000D01*
X147350000Y-100400000D01*
X148450000Y-100400000D01*
X148450000Y-100900000D01*
X148450000Y-100900000D01*
G37*
G36*
X133791981Y-97687468D02*
X133974150Y-97762925D01*
X134138103Y-97872475D01*
X134277525Y-98011897D01*
X134387075Y-98175850D01*
X134462532Y-98358019D01*
X134501000Y-98551410D01*
X134501000Y-98748590D01*
X134462532Y-98941981D01*
X134387075Y-99124150D01*
X134277525Y-99288103D01*
X134138103Y-99427525D01*
X133974150Y-99537075D01*
X133822236Y-99600000D01*
X133791981Y-99612532D01*
X133598590Y-99651000D01*
X133401410Y-99651000D01*
X133208019Y-99612532D01*
X133177764Y-99600000D01*
X133025850Y-99537075D01*
X132861897Y-99427525D01*
X132722475Y-99288103D01*
X132612925Y-99124150D01*
X132537468Y-98941981D01*
X132499000Y-98748590D01*
X132499000Y-98551410D01*
X132537468Y-98358019D01*
X132612925Y-98175850D01*
X132722475Y-98011897D01*
X132861897Y-97872475D01*
X133025850Y-97762925D01*
X133208019Y-97687468D01*
X133401410Y-97649000D01*
X133598590Y-97649000D01*
X133791981Y-97687468D01*
X133791981Y-97687468D01*
G37*
G36*
X137091000Y-99651000D02*
X134989000Y-99651000D01*
X134989000Y-97649000D01*
X137091000Y-97649000D01*
X137091000Y-99651000D01*
X137091000Y-99651000D01*
G37*
G36*
X148450000Y-99600000D02*
X147350000Y-99600000D01*
X147350000Y-99100000D01*
X148450000Y-99100000D01*
X148450000Y-99600000D01*
X148450000Y-99600000D01*
G37*
G36*
X156130500Y-98632500D02*
X155393500Y-98632500D01*
X155393500Y-97387500D01*
X156130500Y-97387500D01*
X156130500Y-98632500D01*
X156130500Y-98632500D01*
G37*
G36*
X154606500Y-98632500D02*
X153869500Y-98632500D01*
X153869500Y-97387500D01*
X154606500Y-97387500D01*
X154606500Y-98632500D01*
X154606500Y-98632500D01*
G37*
G36*
X149380500Y-98622500D02*
X148643500Y-98622500D01*
X148643500Y-97377500D01*
X149380500Y-97377500D01*
X149380500Y-98622500D01*
X149380500Y-98622500D01*
G37*
G36*
X147856500Y-98622500D02*
X147119500Y-98622500D01*
X147119500Y-97377500D01*
X147856500Y-97377500D01*
X147856500Y-98622500D01*
X147856500Y-98622500D01*
G37*
G36*
X151350720Y-98501340D02*
X150649280Y-98501340D01*
X150649280Y-97799900D01*
X151350720Y-97799900D01*
X151350720Y-98501340D01*
X151350720Y-98501340D01*
G37*
G36*
X149380500Y-96872500D02*
X148643500Y-96872500D01*
X148643500Y-95627500D01*
X149380500Y-95627500D01*
X149380500Y-96872500D01*
X149380500Y-96872500D01*
G37*
G36*
X147856500Y-96872500D02*
X147119500Y-96872500D01*
X147119500Y-95627500D01*
X147856500Y-95627500D01*
X147856500Y-96872500D01*
X147856500Y-96872500D01*
G37*
G36*
X156130500Y-96622500D02*
X155393500Y-96622500D01*
X155393500Y-95377500D01*
X156130500Y-95377500D01*
X156130500Y-96622500D01*
X156130500Y-96622500D01*
G37*
G36*
X154606500Y-96622500D02*
X153869500Y-96622500D01*
X153869500Y-95377500D01*
X154606500Y-95377500D01*
X154606500Y-96622500D01*
X154606500Y-96622500D01*
G37*
G36*
X151350720Y-96200100D02*
X150649280Y-96200100D01*
X150649280Y-95498660D01*
X151350720Y-95498660D01*
X151350720Y-96200100D01*
X151350720Y-96200100D01*
G37*
M02*
